<?xml version="1.0" encoding="UTF-8" standalone="no"?>
<svg
   xmlns:dc="http://purl.org/dc/elements/1.1/"
   xmlns:cc="http://creativecommons.org/ns#"
   xmlns:rdf="http://www.w3.org/1999/02/22-rdf-syntax-ns#"
   xmlns:svg="http://www.w3.org/2000/svg"
   xmlns="http://www.w3.org/2000/svg"
   xmlns:xlink="http://www.w3.org/1999/xlink"
   xmlns:sodipodi="http://sodipodi.sourceforge.net/DTD/sodipodi-0.dtd"
   xmlns:inkscape="http://www.inkscape.org/namespaces/inkscape"
   width="48"
   height="48"
   viewBox="0 0 12.7 12.7"
   version="1.1"
   id="svg9022"
   inkscape:version="1.0.2 (1.0.2+r75+1)"
   sodipodi:docname="basic-enemy.svg"
   inkscape:export-filename="/home/mag/Desktop/cs-320-game/GraphicsProjectJava/res/icons/enemy-basic.png"
   inkscape:export-xdpi="102.272"
   inkscape:export-ydpi="102.272">
  <defs
     id="defs9016">
    <linearGradient
       inkscape:collect="always"
       id="linearGradient1071">
      <stop
         style="stop-color:#5e5e5e;stop-opacity:1"
         offset="0"
         id="stop1067" />
      <stop
         style="stop-color:#000000;stop-opacity:1"
         offset="1"
         id="stop1069" />
    </linearGradient>
    <linearGradient
       inkscape:collect="always"
       id="linearGradient1003">
      <stop
         style="stop-color:#004357;stop-opacity:1"
         offset="0"
         id="stop999" />
      <stop
         style="stop-color:#0098c6;stop-opacity:1"
         offset="1"
         id="stop1001" />
    </linearGradient>
    <linearGradient
       inkscape:collect="always"
       xlink:href="#linearGradient1003"
       id="linearGradient1005"
       x1="7.7329183"
       y1="11.626457"
       x2="7.7988372"
       y2="1.9138796"
       gradientUnits="userSpaceOnUse"
       gradientTransform="matrix(1.641041,0,0,1.7250774,-4.219568,-3.2182405)" />
    <radialGradient
       inkscape:collect="always"
       xlink:href="#linearGradient1071"
       id="radialGradient1055"
       cx="2.6332872"
       cy="6.4054303"
       fx="2.6332872"
       fy="6.4054303"
       r="2.6541479"
       gradientTransform="matrix(1,0,0,0.77203657,0,1.8121173)"
       gradientUnits="userSpaceOnUse" />
    <radialGradient
       inkscape:collect="always"
       xlink:href="#linearGradient1071"
       id="radialGradient1057"
       cx="9.707243"
       cy="6.8523064"
       fx="9.707243"
       fy="6.8523064"
       r="2.6541479"
       gradientTransform="matrix(1,0,0,0.77203638,0,1.8372975)"
       gradientUnits="userSpaceOnUse" />
  </defs>
  <sodipodi:namedview
     id="base"
     pagecolor="#ffffff"
     bordercolor="#666666"
     borderopacity="1.0"
     inkscape:pageopacity="0.0"
     inkscape:pageshadow="2"
     inkscape:zoom="9.0929513"
     inkscape:cx="22.370695"
     inkscape:cy="43.976333"
     inkscape:document-units="mm"
     inkscape:current-layer="layer1"
     inkscape:document-rotation="0"
     showgrid="false"
     units="px"
     inkscape:window-width="1848"
     inkscape:window-height="1016"
     inkscape:window-x="72"
     inkscape:window-y="27"
     inkscape:window-maximized="1"
     showguides="true">
    <inkscape:grid
       type="xygrid"
       id="grid917" />
  </sodipodi:namedview>
  <metadata
     id="metadata9019">
    <rdf:RDF>
      <cc:Work
         rdf:about="">
        <dc:format>image/svg+xml</dc:format>
        <dc:type
           rdf:resource="http://purl.org/dc/dcmitype/StillImage" />
        <dc:title></dc:title>
      </cc:Work>
    </rdf:RDF>
  </metadata>
  <g
     inkscape:label="Layer 1"
     inkscape:groupmode="layer"
     id="layer1">
    <g
       id="g1126"
       transform="matrix(0.74720894,0,0,0.74720894,0.1131347,0.06646661)">
      <g
         id="g1090">
        <path
           id="path919"
           style="fill:url(#linearGradient1005);fill-opacity:1;stroke-width:0.314148;paint-order:markers fill stroke"
           d="m 16.350882,7.676694 c -0.0084,4.367296 -4.412513,7.868138 -7.8804136,9.161603 C 5.5575319,15.946135 0.42866515,11.95808 0.42866483,7.5754026 0.4286645,3.1927248 4.0556388,0.01839166 8.2248166,0.01839166 12.393995,0.01839183 16.359249,3.2940253 16.350882,7.676694 Z"
           sodipodi:nodetypes="scsss" />
        <path
           id="path867"
           style="opacity:1;fill:#ffffff;fill-opacity:1;stroke:none;stroke-width:0.286786;stroke-linecap:round;stroke-linejoin:round;paint-order:stroke fill markers"
           d="m 8.0340622,11.161787 c -2.035808,-0.0014 -2.6935492,1.619039 -2.3245257,2.321124 0.324221,0.616844 1.0557861,-0.260616 2.2521646,-0.260616 l 0.8619314,0.0027 c 1.1963785,0 1.9273035,0.877459 2.2515245,0.260615 0.369023,-0.702085 -0.271859,-2.331597 -2.3076686,-2.330193 l -0.7334262,0.0064 z"
           sodipodi:nodetypes="csccsccc" />
        <path
           style="fill:none;stroke:#000000;stroke-width:0.165;stroke-linecap:butt;stroke-linejoin:miter;stroke-miterlimit:4;stroke-dasharray:none;stroke-opacity:0.683947"
           d="m 8.3999651,11.267116 c 0.040121,1.912424 0.044908,1.931933 0.044908,1.931933"
           id="path911" />
        <path
           style="fill:none;stroke:#000000;stroke-width:0.165;stroke-linecap:butt;stroke-linejoin:miter;stroke-miterlimit:4;stroke-dasharray:none;stroke-opacity:0.683947"
           d="M 9.9064859,11.471131 C 9.5581876,13.24275 9.5581876,13.24275 9.5581876,13.24275"
           id="path913" />
        <path
           style="fill:none;stroke:#000000;stroke-width:0.165;stroke-linecap:butt;stroke-linejoin:miter;stroke-miterlimit:4;stroke-dasharray:none;stroke-opacity:0.683947"
           d="m 6.859058,11.520416 c 0.6713863,1.662473 0.7416462,1.712451 0.7416462,1.712451"
           id="path915"
           sodipodi:nodetypes="cc" />
        <path
           style="fill:none;stroke:#000000;stroke-width:0.165;stroke-linecap:butt;stroke-linejoin:miter;stroke-miterlimit:4;stroke-dasharray:none;stroke-opacity:0.683947"
           d="M 10.982261,12.472271 C 10.359115,13.48592 10.359115,13.48592 10.359115,13.48592"
           id="path917" />
        <path
           style="fill:none;stroke:#000000;stroke-width:0.165;stroke-linecap:butt;stroke-linejoin:miter;stroke-miterlimit:4;stroke-dasharray:none;stroke-opacity:0.683947"
           d="m 5.8182819,12.146155 c 0.8273187,1.309273 0.8273187,1.309273 0.8273187,1.309273"
           id="path920" />
        <path
           id="path922"
           style="mix-blend-mode:normal;fill:url(#radialGradient1057);fill-opacity:1;stroke:none;stroke-width:0.393318;stroke-miterlimit:4;stroke-dasharray:none;stroke-opacity:0.55;paint-order:stroke fill markers"
           d="m 14.964114,6.3758371 c 0.196006,0.2808061 -0.06498,1.8162795 -0.605416,2.4689245 -0.613997,0.7414842 -1.687879,0.9895075 -2.627559,1.1987734 -0.604359,0.134591 -1.8573969,0.01899 -1.8573969,0.01899 -0.1973057,-0.01728 -0.3043301,-2.2614189 0.3259519,-3.0784431 0.553663,-0.7177041 1.641222,-0.8712393 2.542973,-0.9633602 0.746001,-0.07621 2.126186,0.2972459 2.221447,0.3551164 z"
           sodipodi:nodetypes="caacaac" />
        <path
           id="path922-2"
           style="mix-blend-mode:normal;fill:url(#radialGradient1055);fill-opacity:1;stroke:none;stroke-width:0.393318;stroke-miterlimit:4;stroke-dasharray:none;stroke-opacity:0.55;paint-order:stroke fill markers"
           d="m 2.0685936,6.2653871 c -0.196006,0.2808061 0.064983,1.8162795 0.605416,2.4689245 0.6139971,0.7414842 1.6878791,0.9895075 2.6275591,1.1987733 0.604359,0.1345911 1.857397,0.01899 1.857397,0.01899 0.197306,-0.01728 0.30433,-2.2614188 -0.325952,-3.078443 C 6.2793507,6.1559268 5.1917917,6.0023916 4.2900407,5.9102707 3.5440397,5.8340607 2.1638546,6.2075166 2.0685936,6.2653871 Z"
           sodipodi:nodetypes="caacaac" />
        <path
           id="path1073"
           style="opacity:1;fill:#ffffff;fill-opacity:0.29586;stroke:none;stroke-width:0.165;stroke-linecap:round;stroke-linejoin:round;stroke-miterlimit:4;stroke-dasharray:none;stroke-opacity:0.683947;paint-order:stroke fill markers"
           d="M 2.7413787,2.883251 C 2.8715786,3.1862036 3.7690926,2.1809165 4.28743,1.8059003 4.6110308,1.5717756 5.3345133,1.3428987 5.2389639,1.070168 5.073957,0.59918193 4.2046655,1.1746667 3.7923093,1.4557672 3.3040865,1.7885854 2.5080734,2.34039 2.7413787,2.883251 Z"
           sodipodi:nodetypes="sssas" />
        <path
           id="path1076"
           style="opacity:1;fill:#ffffff;fill-opacity:0.3;stroke:none;stroke-width:0.165;stroke-linecap:round;stroke-linejoin:round;stroke-miterlimit:4;stroke-dasharray:none;stroke-opacity:0.683947;paint-order:stroke fill markers"
           d="M 5.8362283,0.66764525 C 5.945372,0.76123895 5.7228678,0.79431241 5.5915553,0.8672354 5.5042352,0.91572769 5.3667575,0.91065321 5.2469085,0.8841534 5.1065211,0.85311233 5.2787497,0.65764481 5.4635599,0.59352843 5.6054649,0.54429719 5.7270846,0.57405156 5.8362283,0.66764525 Z"
           sodipodi:nodetypes="sssss" />
      </g>
      <g
         id="g1098"
         style="display:inline">
        <path
           id="path867-6"
           style="fill:none;fill-opacity:1;stroke:#082229;stroke-width:0.287;stroke-linecap:round;stroke-linejoin:round;stroke-miterlimit:4;stroke-dasharray:none;stroke-opacity:1;paint-order:stroke fill markers"
           d="m 8.0340622,11.161757 c -2.035808,-0.0014 -2.6935492,1.619039 -2.3245257,2.321124 0.324221,0.616844 1.0557857,-0.260616 2.2521647,-0.260616 l 0.861931,0.0027 c 1.1963788,0 1.9273038,0.877459 2.2515248,0.260615 0.369023,-0.702085 -0.271859,-2.331597 -2.3076688,-2.330193 l -0.733426,0.0064 z"
           sodipodi:nodetypes="csccsccc" />
        <path
           style="color:#000000;font-style:normal;font-variant:normal;font-weight:normal;font-stretch:normal;font-size:medium;line-height:normal;font-family:sans-serif;font-variant-ligatures:normal;font-variant-position:normal;font-variant-caps:normal;font-variant-numeric:normal;font-variant-alternates:normal;font-variant-east-asian:normal;font-feature-settings:normal;font-variation-settings:normal;text-indent:0;text-align:start;text-decoration:none;text-decoration-line:none;text-decoration-style:solid;text-decoration-color:#000000;letter-spacing:normal;word-spacing:normal;text-transform:none;writing-mode:lr-tb;direction:ltr;text-orientation:mixed;dominant-baseline:auto;baseline-shift:baseline;text-anchor:start;white-space:normal;shape-padding:0;shape-margin:0;inline-size:0;clip-rule:nonzero;display:inline;overflow:visible;visibility:visible;opacity:1;isolation:auto;mix-blend-mode:normal;color-interpolation:sRGB;color-interpolation-filters:linearRGB;solid-color:#000000;solid-opacity:1;vector-effect:none;fill:#004053;fill-opacity:1;fill-rule:nonzero;stroke:none;stroke-linecap:butt;stroke-linejoin:miter;stroke-miterlimit:4;stroke-dasharray:none;stroke-dashoffset:0;stroke-opacity:1;color-rendering:auto;image-rendering:auto;shape-rendering:auto;text-rendering:auto;enable-background:accumulate;stop-color:#000000;stop-opacity:1"
           d="M 13.754407,5.1993293 C 13.090571,5.2952101 12.52128,5.6110304 11.96233,5.8740299 11.485736,6.0982783 11.080253,6.3599021 10.628372,6.5433329 10.310384,6.6724128 10.056692,6.8172807 9.8083046,6.7731611 9.6110761,6.7381287 9.4466373,6.6521833 9.3406243,6.4684472 9.2944733,6.3884606 9.2792165,6.323413 9.2732645,6.1465193 9.0986756,5.9923169 8.9106008,5.7189013 8.9106577,5.7188606 c 0,0 -0.012359,0.1603605 -0.00586,0.3535156 0.0065,0.1931551 0.020134,0.4182514 0.1191406,0.5898437 0.1442501,0.2500069 0.4014477,0.4572214 0.6972656,0.5097657 0.3874491,0.06882 0.7215701,-0.1654819 1.0019521,-0.2792969 0.492433,-0.1998922 0.911848,-0.5090966 1.357422,-0.71875 0.583184,-0.274402 1.127443,-0.6283318 1.712891,-0.7128906 0.214166,-0.030933 0.444015,-0.016543 0.628906,0.064453 0.12629,0.055324 0.30189,0.1121809 0.457321,0.265752 0.153536,0.1096087 0.469397,0.1804773 0.497757,0.2303417 0,0 -0.120832,-0.1442825 -0.285156,-0.3066406 C 14.927974,5.5525962 14.72731,5.3706938 14.527845,5.2833137 14.28192,5.1755807 14.005753,5.1630263 13.754407,5.1993293 Z"
           id="path991"
           sodipodi:nodetypes="sssssccsssssssccsss" />
        <path
           style="color:#000000;font-style:normal;font-variant:normal;font-weight:normal;font-stretch:normal;font-size:medium;line-height:normal;font-family:sans-serif;font-variant-ligatures:normal;font-variant-position:normal;font-variant-caps:normal;font-variant-numeric:normal;font-variant-alternates:normal;font-variant-east-asian:normal;font-feature-settings:normal;font-variation-settings:normal;text-indent:0;text-align:start;text-decoration:none;text-decoration-line:none;text-decoration-style:solid;text-decoration-color:#000000;letter-spacing:normal;word-spacing:normal;text-transform:none;writing-mode:lr-tb;direction:ltr;text-orientation:mixed;dominant-baseline:auto;baseline-shift:baseline;text-anchor:start;white-space:normal;shape-padding:0;shape-margin:0;inline-size:0;clip-rule:nonzero;display:inline;overflow:visible;visibility:visible;isolation:auto;mix-blend-mode:normal;color-interpolation:sRGB;color-interpolation-filters:linearRGB;solid-color:#000000;solid-opacity:1;vector-effect:none;fill:#004053;fill-opacity:1;fill-rule:nonzero;stroke:none;stroke-linecap:butt;stroke-linejoin:miter;stroke-miterlimit:4;stroke-dasharray:none;stroke-dashoffset:0;stroke-opacity:1;color-rendering:auto;image-rendering:auto;shape-rendering:auto;text-rendering:auto;enable-background:accumulate;stop-color:#000000"
           d="m 3.2815754,5.0984191 c 0.663836,0.095881 1.2331275,0.4117011 1.7920775,0.6747006 0.4765945,0.2242484 0.8820775,0.4858722 1.3339585,0.669303 0.317988,0.1290799 0.57168,0.2739478 0.820067,0.2298282 0.197229,-0.035032 0.361668,-0.1209778 0.467681,-0.3047139 0.04615,-0.079987 0.06141,-0.1450342 0.06736,-0.3219279 0.174588,-0.1542024 0.362663,-0.427618 0.362606,-0.4276587 0,0 0.01236,0.1603605 0.0059,0.3535156 -0.0065,0.1931551 -0.02013,0.4182514 -0.11914,0.5898437 -0.14429,0.2500069 -0.401488,0.4572214 -0.697306,0.5097657 -0.387449,0.06882 -0.72157,-0.1654819 -1.001952,-0.2792969 C 5.8203944,6.5918863 5.4009789,6.2826819 4.9554049,6.0730285 4.3722209,5.7986265 3.8279624,5.4446967 3.2425144,5.3601379 c -0.214166,-0.030933 -0.444015,-0.016543 -0.628906,0.064453 -0.12629,0.055324 -0.30189,0.1121809 -0.457321,0.265752 -0.153536,0.1096087 -0.469397,0.1804773 -0.497757,0.2303417 0,0 0.120832,-0.1442825 0.285156,-0.3066406 0.164322,-0.162358 0.364987,-0.3442604 0.564452,-0.4316405 0.245925,-0.107733 0.522091,-0.1202874 0.773437,-0.083984 z"
           id="path991-9"
           sodipodi:nodetypes="sssssccsssssssccsss" />
        <path
           style="color:#000000;font-style:normal;font-variant:normal;font-weight:normal;font-stretch:normal;font-size:medium;line-height:normal;font-family:sans-serif;font-variant-ligatures:normal;font-variant-position:normal;font-variant-caps:normal;font-variant-numeric:normal;font-variant-alternates:normal;font-variant-east-asian:normal;font-feature-settings:normal;font-variation-settings:normal;text-indent:0;text-align:start;text-decoration:none;text-decoration-line:none;text-decoration-style:solid;text-decoration-color:#000000;letter-spacing:normal;word-spacing:normal;text-transform:none;writing-mode:lr-tb;direction:ltr;text-orientation:mixed;dominant-baseline:auto;baseline-shift:baseline;text-anchor:start;white-space:normal;shape-padding:0;shape-margin:0;inline-size:0;clip-rule:nonzero;display:inline;overflow:visible;visibility:visible;opacity:1;isolation:auto;mix-blend-mode:normal;color-interpolation:sRGB;color-interpolation-filters:linearRGB;solid-color:#000000;solid-opacity:1;vector-effect:none;fill:#004053;fill-opacity:1;fill-rule:nonzero;stroke:none;stroke-linecap:butt;stroke-linejoin:miter;stroke-miterlimit:4;stroke-dasharray:none;stroke-dashoffset:0;stroke-opacity:1;color-rendering:auto;image-rendering:auto;shape-rendering:auto;text-rendering:auto;enable-background:accumulate;stop-color:#000000;stop-opacity:1"
           d="m 8.5896522,6.4445197 c 0.1307726,0.4115399 0.3723852,0.6725339 0.3556603,0.6765741 0,0 -0.2091997,-0.4856701 -0.25,-0.7441407 -0.027714,-0.1755712 0.00586,-0.5332031 0.00586,-0.5332031 0,0 -0.1095629,0.3189814 -0.1115203,0.6007697 z"
           id="path1021"
           sodipodi:nodetypes="ccacc" />
        <path
           style="color:#000000;font-style:normal;font-variant:normal;font-weight:normal;font-stretch:normal;font-size:medium;line-height:normal;font-family:sans-serif;font-variant-ligatures:normal;font-variant-position:normal;font-variant-caps:normal;font-variant-numeric:normal;font-variant-alternates:normal;font-variant-east-asian:normal;font-feature-settings:normal;font-variation-settings:normal;text-indent:0;text-align:start;text-decoration:none;text-decoration-line:none;text-decoration-style:solid;text-decoration-color:#000000;letter-spacing:normal;word-spacing:normal;text-transform:none;writing-mode:lr-tb;direction:ltr;text-orientation:mixed;dominant-baseline:auto;baseline-shift:baseline;text-anchor:start;white-space:normal;shape-padding:0;shape-margin:0;inline-size:0;clip-rule:nonzero;display:inline;overflow:visible;visibility:visible;isolation:auto;mix-blend-mode:normal;color-interpolation:sRGB;color-interpolation-filters:linearRGB;solid-color:#000000;solid-opacity:1;vector-effect:none;fill:#004053;fill-opacity:1;fill-rule:nonzero;stroke:none;stroke-linecap:butt;stroke-linejoin:miter;stroke-miterlimit:4;stroke-dasharray:none;stroke-dashoffset:0;stroke-opacity:1;color-rendering:auto;image-rendering:auto;shape-rendering:auto;text-rendering:auto;enable-background:accumulate;stop-color:#000000"
           d="M 8.4083425,6.448788 C 8.2775699,6.8603279 8.0359573,7.1213219 8.0526822,7.1253621 c 0,0 0.2091997,-0.4856701 0.25,-0.7441407 0.027714,-0.1755712 -0.00586,-0.5332031 -0.00586,-0.5332031 0,0 0.1095629,0.3189814 0.1115203,0.6007697 z"
           id="path1021-1"
           sodipodi:nodetypes="ccacc" />
        <path
           style="color:#000000;font-style:normal;font-variant:normal;font-weight:normal;font-stretch:normal;font-size:medium;line-height:normal;font-family:sans-serif;font-variant-ligatures:normal;font-variant-position:normal;font-variant-caps:normal;font-variant-numeric:normal;font-variant-alternates:normal;font-variant-east-asian:normal;font-feature-settings:normal;font-variation-settings:normal;text-indent:0;text-align:start;text-decoration:none;text-decoration-line:none;text-decoration-style:solid;text-decoration-color:#000000;letter-spacing:normal;word-spacing:normal;text-transform:none;writing-mode:lr-tb;direction:ltr;text-orientation:mixed;dominant-baseline:auto;baseline-shift:baseline;text-anchor:start;white-space:normal;shape-padding:0;shape-margin:0;inline-size:0;clip-rule:nonzero;display:inline;overflow:visible;visibility:visible;opacity:1;isolation:auto;mix-blend-mode:normal;color-interpolation:sRGB;color-interpolation-filters:linearRGB;solid-color:#000000;solid-opacity:1;vector-effect:none;fill:#004053;fill-opacity:1;fill-rule:nonzero;stroke:none;stroke-width:0.647345;stroke-linecap:butt;stroke-linejoin:miter;stroke-miterlimit:4;stroke-dasharray:none;stroke-dashoffset:0;stroke-opacity:1;color-rendering:auto;image-rendering:auto;shape-rendering:auto;text-rendering:auto;enable-background:accumulate;stop-color:#000000;stop-opacity:1"
           d="M 8.479319,5.644425 C 8.471299,6.6686572 8.467712,6.6240012 8.467712,6.6240012 L 8.49541,6.8242128 8.526168,6.6230659 c 0,0 0.00527,0.039907 0.013288,-0.9840162 L 8.5088654,5.4111395 Z"
           id="path1047"
           sodipodi:nodetypes="ccccccc" />
      </g>
    </g>
  </g>
  <g
     inkscape:groupmode="layer"
     id="layer2"
     inkscape:label="Layer 2"
     style="display:inline" />
</svg>
