<?xml version="1.0" encoding="UTF-8" standalone="no"?>
<svg
   xmlns:dc="http://purl.org/dc/elements/1.1/"
   xmlns:cc="http://creativecommons.org/ns#"
   xmlns:rdf="http://www.w3.org/1999/02/22-rdf-syntax-ns#"
   xmlns:svg="http://www.w3.org/2000/svg"
   xmlns="http://www.w3.org/2000/svg"
   xmlns:xlink="http://www.w3.org/1999/xlink"
   xmlns:sodipodi="http://sodipodi.sourceforge.net/DTD/sodipodi-0.dtd"
   xmlns:inkscape="http://www.inkscape.org/namespaces/inkscape"
   width="96"
   height="96"
   viewBox="0 0 25.4 25.4"
   version="1.1"
   id="svg8"
   sodipodi:docname="enemy-type3.svg"
   inkscape:version="1.0.2 (1.0.2+r75+1)"
   inkscape:export-filename="/home/mag/Desktop/cs-320-game/GraphicsProjectJava/res/icons/enemy-fire.png"
   inkscape:export-xdpi="96"
   inkscape:export-ydpi="96">
  <defs
     id="defs2">
    <linearGradient
       inkscape:collect="always"
       id="linearGradient3570">
      <stop
         style="stop-color:#ff8562;stop-opacity:1"
         offset="0"
         id="stop3564" />
      <stop
         style="stop-color:#ffbf31;stop-opacity:1"
         offset="0.40114224"
         id="stop3566" />
      <stop
         style="stop-color:#e6c300;stop-opacity:1"
         offset="0.75474113"
         id="stop3572" />
      <stop
         style="stop-color:#fffc5a;stop-opacity:1"
         offset="1"
         id="stop3568" />
    </linearGradient>
    <linearGradient
       inkscape:collect="always"
       id="linearGradient3556">
      <stop
         style="stop-color:#240d85;stop-opacity:1"
         offset="0"
         id="stop3552" />
      <stop
         style="stop-color:#0d588a;stop-opacity:1"
         offset="0.45765412"
         id="stop3560" />
      <stop
         style="stop-color:#0d7e91;stop-opacity:1"
         offset="1"
         id="stop3554" />
    </linearGradient>
    <linearGradient
       inkscape:collect="always"
       id="linearGradient1124">
      <stop
         style="stop-color:#b80f5a;stop-opacity:1"
         offset="0"
         id="stop1120" />
      <stop
         style="stop-color:#ad000d;stop-opacity:1"
         offset="0.46617091"
         id="stop3490" />
      <stop
         style="stop-color:#e6562d;stop-opacity:1;"
         offset="0.84054101"
         id="stop3492" />
      <stop
         style="stop-color:#ffe73c;stop-opacity:1"
         offset="1"
         id="stop1122" />
    </linearGradient>
    <linearGradient
       inkscape:collect="always"
       xlink:href="#linearGradient1124"
       id="linearGradient1126"
       x1="5.9855056"
       y1="12.374355"
       x2="6.0159655"
       y2="0.32286835"
       gradientUnits="userSpaceOnUse"
       spreadMethod="pad" />
    <linearGradient
       inkscape:collect="always"
       xlink:href="#linearGradient3556"
       id="linearGradient3558"
       x1="6.0819988"
       y1="11.078807"
       x2="5.6481385"
       y2="6.9820118"
       gradientUnits="userSpaceOnUse" />
    <linearGradient
       inkscape:collect="always"
       xlink:href="#linearGradient3570"
       id="linearGradient3562"
       gradientUnits="userSpaceOnUse"
       x1="5.9368548"
       y1="10.619661"
       x2="6.0036802"
       y2="7.0330629" />
    <linearGradient
       inkscape:collect="always"
       xlink:href="#linearGradient3556"
       id="linearGradient3593"
       gradientUnits="userSpaceOnUse"
       x1="6.0819988"
       y1="11.078807"
       x2="5.6481385"
       y2="6.9820118" />
  </defs>
  <sodipodi:namedview
     id="base"
     pagecolor="#ffffff"
     bordercolor="#666666"
     borderopacity="1.0"
     inkscape:pageopacity="0.0"
     inkscape:pageshadow="2"
     inkscape:zoom="4"
     inkscape:cx="46.538807"
     inkscape:cy="40.730934"
     inkscape:document-units="mm"
     inkscape:current-layer="layer1"
     inkscape:document-rotation="0"
     showgrid="false"
     units="px"
     inkscape:window-width="1848"
     inkscape:window-height="1016"
     inkscape:window-x="72"
     inkscape:window-y="27"
     inkscape:window-maximized="1"
     showguides="false">
    <inkscape:grid
       type="xygrid"
       id="grid883" />
  </sodipodi:namedview>
  <metadata
     id="metadata5">
    <rdf:RDF>
      <cc:Work
         rdf:about="">
        <dc:format>image/svg+xml</dc:format>
        <dc:type
           rdf:resource="http://purl.org/dc/dcmitype/StillImage" />
        <dc:title></dc:title>
      </cc:Work>
    </rdf:RDF>
  </metadata>
  <g
     inkscape:label="Layer 1"
     inkscape:groupmode="layer"
     id="layer1"
     style="display:inline">
    <g
       id="g3591"
       transform="matrix(2.040025,0,0,2.040025,-0.23738904,-0.33579115)">
      <path
         id="path857"
         style="fill:url(#linearGradient1126);fill-opacity:1;stroke:none;stroke-width:0.298913;stroke-linecap:square;paint-order:markers fill stroke"
         d="m 8.1813365,11.457616 c -0.7908866,0 -0.8795618,0.660682 -0.4270062,0.24971 -0.3566862,0.59015 -0.7333804,-0.0099 -0.6315954,0.03916 0.2772189,0.13373 -0.223989,0.396873 -0.5105773,0.562666 -0.2966894,0.171637 -0.915693,0.16732 -1.3205333,0.175771 0,0 0.5818223,-0.203806 -0.2011144,-0.374996 C 4.7671966,12.039244 5.0766962,11.721648 4.6580754,11.638813 4.1395836,11.536216 4.3908572,11.674401 4.4876828,11.722636 4.0033892,11.784228 3.8366337,11.446882 3.7319906,11.167505 3.7110773,11.11167 3.6807932,10.897973 3.5244119,10.974846 3.3680304,11.05172 2.9630482,11.228653 2.7437638,10.939198 2.8812328,10.96392 3.0989663,10.8078 3.1009477,10.724845 3.1025839,10.656331 2.7781196,10.509956 2.5663911,10.373536 2.2585682,10.175203 2.7914384,9.7912004 2.7644343,9.4908778 2.7357194,9.1715304 2.1142134,9.3606177 2.3829437,9.5908461 1.9786623,9.5173853 2.0667173,9.0313517 2.2925344,8.7401977 2.4134936,8.5842406 2.2420944,8.5098739 2.0427783,8.5192072 2.1622595,8.3366955 1.8614089,7.9932055 1.589531,7.9321942 1.3816962,7.9255247 1.0368096,8.066919 1.1499721,7.5360179 0.99744253,7.549985 0.67059611,7.3486918 0.85242642,7.0848782 1.2287017,6.5389487 1.1153574,6.5523332 1.4193957,6.2828425 1.3246323,6.5424637 2.2044885,6.4941928 2.0754238,6.1945154 2.043458,6.1202935 0.78661064,6.2884173 0.51003319,5.6176623 0.43401312,5.4332986 0.71945607,4.7630154 0.51599834,4.7709639 0.07424618,4.7882219 0.19635219,3.8485024 0.51184092,3.5849513 0.58053956,3.4787186 0.61784229,4.6647549 0.94321352,3.9579833 1.0938059,3.6308663 1.6489437,3.5184578 2.2270055,3.2795233 c -0.033669,0.1539757 0.056974,0.28787 0.2693007,0.3869766 0.04895,0.022848 0.095367,0.1363577 0.1933073,0.1114807 C 2.7698915,3.7575896 2.4820256,3.279837 2.6434827,3.2239968 2.5326613,3.3572079 3.1319546,3.5795742 3.1826227,3.4507304 3.2147593,3.3690104 3.1903881,3.27185 3.095748,3.1684838 3.0110253,3.0759494 2.7703028,2.9675255 2.9938017,2.7829005 3.1371183,2.6645115 2.3326429,2.6570328 2.2250937,2.4908633 2.5676129,2.3939883 2.4209857,2.0408209 2.1971024,1.9268079 2.0654753,1.8597765 1.9338985,1.8057168 1.9089934,1.7651581 2.2563033,1.4913159 2.7483269,1.3445603 3.1488223,1.5643717 3.574392,1.7979451 3.8912332,1.0576533 4.0926791,1.1662372 3.7952525,1.4065451 4.0644338,2.1036714 4.3611029,2.2182354 5.0719882,2.8557477 4.9527419,3.6218946 4.1629377,3.7689321 4.7008023,3.5887703 4.2940048,2.5274502 4.4921042,1.8052488 4.6902036,1.0830474 4.7519385,0.52136519 6.0159653,0.32286836 6.0337453,0.37380752 6.0310453,0.52932811 5.9747498,0.8056915 5.9144766,1.1015818 6.0967567,1.3426713 6.2314591,1.4983383 6.3090978,1.5880605 6.6119154,1.1327998 6.7085769,1.2121808 6.8401721,1.3202503 7.1042876,0.80106649 7.0749309,0.75888889 7.4290487,0.9717348 7.1368403,1.7362708 7.1973758,1.7828338 7.2892158,1.8534757 7.2227,2.0456286 7.2890182,2.115795 7.6279839,2.4164906 7.5139419,2.8584015 7.4676742,2.9996995 7.5321849,2.9044119 7.5363246,2.1020814 7.8283133,1.9728117 7.8274745,2.1470261 8.2196044,2.3838974 8.3029298,2.2114958 8.4313353,1.9458226 8.4643791,1.621911 8.4672348,1.3057641 8.4700904,0.98961726 8.4427525,0.68123246 8.4503783,0.44660491 8.7760895,0.56085144 8.9917564,0.96326857 9.3451332,1.3149797 c 0.2053155,0.2043479 0.247807,0.5920473 0.3331431,0.7885731 0.088375,0.2035233 0.4876557,0.040883 0.5473387,-0.3713699 0.07602,0.1283911 0.177119,0.2858282 0.148426,0.453839 -0.09145,0.5354837 0.335844,0.9053158 0.532164,0.5655551 0.09381,0.1743982 -0.09653,0.3484146 -0.249697,0.4945757 -0.106971,0.1020758 -0.286141,0.2161455 -0.290122,0.302245 -0.01537,0.3323597 0.04715,0.9908303 -0.352768,0.9207941 -0.247988,-0.043429 -0.1112214,0.2865464 0.145153,0.1977574 0.312421,-0.027698 0.517554,-0.2361381 0.327675,-0.5988199 0.244994,0.1135201 0.64491,0.2024215 0.756429,0.5009305 0.163147,0.4367076 0.718218,0.067203 1.317325,-0.1606186 -0.496799,0.5210773 -0.331139,0.9513002 -0.395317,1.2455916 -0.09735,0.4464159 -0.994372,1.3641242 -1.582756,1.1601281 -0.450912,-0.156334 -0.531552,-0.051005 -0.293103,0.1165223 0.846729,0.5948842 0.868925,0.2201992 0.992922,0.1448268 0.077,0.6819139 -1.034945,0.9209117 -1.073386,0.7275579 -0.03617,-0.1819158 0.351523,0.6479451 0.172968,0.8469545 -0.4626865,0.5156914 -0.259719,0.9305067 0.110471,0.6691716 -0.08711,0.681758 -0.7042572,0.4499603 -0.7628291,0.6741587 -0.038703,0.1481603 -0.165856,0.2946803 -0.2779521,0.3657763 -0.7808541,0.495247 0.1270014,0.507566 0.2373418,0.231664 0.048997,0.453247 -0.8909122,0.827968 -1.3494185,0.295181 0.095542,0.109622 0.1536834,0.571642 -0.1578016,0.571642 z"
         sodipodi:nodetypes="scsscsscsscssscscccscssscscsscssscscscccscssscscccsscsscscsssccscssscsscssccss" />
      <g
         id="g3549"
         style="display:inline;fill:url(#linearGradient3558);fill-opacity:1">
        <g
           id="g3538"
           transform="translate(0.14167013,-0.01169078)"
           style="fill:url(#linearGradient3593);fill-opacity:1" />
        <path
           id="path3542"
           style="fill:url(#linearGradient3562);fill-opacity:1;stroke:none;stroke-width:0.207;stroke-linecap:square;stroke-opacity:1;paint-order:markers fill stroke"
           inkscape:transform-center-x="-0.0095205197"
           inkscape:transform-center-y="-0.0023818314"
           d="M 7.7076881,9.9154553 C 7.6108786,10.057201 7.4277669,10.405979 7.0848121,10.188585 l 0.083561,0.22252 c -0.1627939,0.06855 -0.2718984,0.283908 -0.3988657,0.08459 0.021615,0.137706 -0.024435,0.185397 -0.06936,0.234585 l -0.2228338,0.07576 c 0.016957,-0.09439 -0.066214,-0.116957 -0.13649,-0.177835 2.6e-4,0.09113 -0.071854,0.169341 -0.1662669,0.234585 C 6.0291264,10.796356 5.9920965,10.706 5.9368548,10.619661 5.897488,10.830443 5.6325142,10.697205 5.5008575,10.719982 l -0.02131,-0.180536 C 5.3886937,10.760705 5.1647346,10.655237 5.0178332,10.356382 4.8401865,10.548728 4.5436627,10.292269 4.4248908,10.093657 4.1803431,9.7209468 3.8518062,9.4575731 3.778071,8.9550637 c 0.1345141,0.079093 0.1384704,0.2140609 0.3480361,0.2726688 0.2095659,0.058608 0.508291,0.1672473 0.7644454,0.445989 -0.059083,-0.083745 0.011665,-0.1959193 0.085032,-0.2552513 0.030102,0.2150301 0.168158,0.2886725 0.335591,0.4713567 0.011728,0.015527 0.073807,-0.2209068 0.085212,-0.2070784 0.044799,0.054317 0.092049,0.2215296 0.1124348,0.2889537 C 5.6849402,9.9145482 5.6702731,9.8319409 5.7220372,9.8144849 L 5.8363585,9.9453202 C 6.047233,9.5430793 6.1432874,9.839778 6.2019691,9.8736836 6.2957821,9.7552618 6.3608013,9.6451882 6.3680544,9.6608519 6.3779444,9.6822049 6.5378464,9.7725264 6.593046,9.7861741 6.570342,9.7049321 6.7028471,9.4885575 6.769039,9.4789407 6.855849,9.4883407 6.9505405,9.6092679 6.9582822,9.6797803 7.0961084,9.6200374 7.2887102,9.3205195 7.4380535,9.235609 7.5172262,9.1905946 7.7697519,9.1844764 7.8824258,9.162353 7.9950997,9.1402295 8.2723181,8.9779615 8.2723181,8.9779615 8.0368158,9.2457619 7.7642896,9.6393902 7.7076881,9.9154553 Z M 5.1687534,7.3966425 c 0.020935,0.012336 0.076592,0.063896 0.052641,0.1301504 -0.023879,0.066059 -0.0686,0.1248311 -0.1321194,0.1395026 -0.118841,0.02745 -0.1519449,0.02091 -0.2273013,0.012065 C 4.7002756,7.6593805 4.5487199,7.5893175 4.3934871,7.5402312 4.0871268,7.4433564 3.7676742,7.3831111 3.4802617,7.2316995 3.2049669,7.0866717 2.57432,6.8177377 2.3805664,6.950528 c 0.1717295,0.00491 0.1702863,0.036847 0.1588072,0.04246 -0.1688415,0.076054 -0.035215,0.3573621 -0.1604159,0.3040276 0.00504,0.029945 -0.087127,0.1410623 0.2939816,0.4716633 -0.016762,0.00983 -0.1346175,-0.072444 -0.1857192,0.00224 0.1813559,0.035611 0.2672044,0.5936472 0.5393011,0.5714465 0.1863806,-0.015207 -0.1644823,0.00401 -0.1613736,-0.027563 0.080655,0.1560185 0.4374343,0.2856248 0.4823209,0.3016432 0.1410211,0.050325 0.5154121,0.063363 0.767483,0.019215 C 4.3673697,8.5914515 4.6099,8.5054733 4.8312063,8.3563694 5.1314524,8.1540802 5.5613279,7.5143564 5.1687534,7.3966425 Z m 1.5875,0 c -0.020935,0.012336 -0.076592,0.063896 -0.052641,0.1301504 0.023879,0.066059 0.0686,0.1248311 0.1321194,0.1395026 0.118841,0.02745 0.1519449,0.02091 0.2273013,0.012065 C 7.2247312,7.6593805 7.3762869,7.5893175 7.5315197,7.5402312 7.83788,7.4433564 8.1573326,7.3831111 8.4447451,7.2316995 8.7200399,7.0866717 9.3506868,6.8177377 9.5444404,6.950528 9.3727109,6.955438 9.3741541,6.987375 9.3856332,6.992988 c 0.1688415,0.076054 0.035215,0.3573621 0.1604159,0.3040276 -0.00504,0.029945 0.087127,0.1410623 -0.2939816,0.4716633 0.016762,0.00983 0.1346175,-0.072444 0.1857192,0.00224 C 9.2564308,7.8065295 9.1705823,8.3645661 8.8984856,8.3423654 8.712105,8.3271585 9.0629679,8.3463728 9.0598592,8.3148022 8.9792041,8.4708207 8.6224249,8.600427 8.5775383,8.6164454 8.4365172,8.6667704 8.0621262,8.6798086 7.8100553,8.6356605 7.5576371,8.5914515 7.3151068,8.5054733 7.0938005,8.3563694 6.7935544,8.1540802 6.3636787,7.5143564 6.7562534,7.3966425 Z" />
      </g>
    </g>
  </g>
  <g
     inkscape:groupmode="layer"
     id="layer2"
     inkscape:label="Layer 2"
     style="display:inline" />
  <g
     inkscape:groupmode="layer"
     id="layer4"
     inkscape:label="Layer 4"
     style="display:none"
     sodipodi:insensitive="true">
    <path
       id="path887-6"
       style="display:inline;fill:#000427;fill-opacity:1;stroke:none;stroke-width:0.252482;stroke-linecap:square;stroke-opacity:1;paint-order:markers fill stroke"
       d="M 8.0913762,7.6695987 C 8.6046758,7.8348861 9.4035204,7.8693801 9.7895833,7.4083337 10.007889,7.1476268 9.9415581,6.6073936 10.006873,6.6781514 10.202248,6.889807 10.336139,7.2919345 10.3073,7.6203002 10.278338,7.9500724 10.109622,8.3001317 9.84528,8.4994098 9.2120347,8.9767908 8.1769788,9.337987 7.4122739,9.127942 7.0798193,9.0366252 6.8791667,8.9958333 6.6145833,8.73125 6.35,8.9958333 6.1334726,9.0427948 5.801018,9.1341116 5.0363132,9.3441566 3.7041667,8.73125 3.3960579,8.4863901 3.1368913,8.2804255 2.9629938,7.9370528 2.9340376,7.6072806 2.9051985,7.2789149 3.0390897,6.8767873 3.2344645,6.6651318 3.2997797,6.5943739 3.2334485,7.1346072 3.4517546,7.3953137 3.8378175,7.8563604 4.6366621,7.8218662 5.1499617,7.656579 5.6632613,7.4912918 6.35,7.4083333 6.6145833,7.9375 6.8791667,7.4083333 7.5780766,7.5043113 8.0913762,7.6695987 Z"
       sodipodi:nodetypes="zssssscsscsszcz" />
  </g>
</svg>
