<?xml version="1.0" encoding="UTF-8" standalone="no"?>
<svg xmlns:dc="http://purl.org/dc/elements/1.1/" xmlns:cc="http://creativecommons.org/ns#" xmlns:rdf="http://www.w3.org/1999/02/22-rdf-syntax-ns#" xmlns:svg="http://www.w3.org/2000/svg" xmlns="http://www.w3.org/2000/svg" xmlns:xlink="http://www.w3.org/1999/xlink" xmlns:sodipodi="http://sodipodi.sourceforge.net/DTD/sodipodi-0.dtd" xmlns:inkscape="http://www.inkscape.org/namespaces/inkscape" width="128" height="128" viewBox="0 0 33.866667 33.866668" version="1.1" id="svg8" sodipodi:docname="enemy-type2.svg" inkscape:version="1.0.2 (1.0.2+r75+1)" inkscape:export-filename="/home/mag/Desktop/cs-320-game/GraphicsProjectJava/res/icons/enemy-slime.png" inkscape:export-xdpi="96" inkscape:export-ydpi="96">
  <defs id="defs2">
    <inkscape:path-effect effect="spiro" id="path-effect10236" is_visible="true" lpeversion="1"/>
    <inkscape:path-effect effect="spiro" id="path-effect10213" is_visible="true" lpeversion="1"/>
    <linearGradient inkscape:collect="always" id="linearGradient1191">
      <stop style="stop-color:#ffbf2f;stop-opacity:1" offset="0" id="stop1187"/>
      <stop style="stop-color:#e7f100;stop-opacity:1" offset="1" id="stop1189"/>
    </linearGradient>
    <linearGradient inkscape:collect="always" id="linearGradient1110">
      <stop style="stop-color:#089800;stop-opacity:1" offset="0" id="stop1106"/>
      <stop style="stop-color:#01b9e4;stop-opacity:0.99635488" offset="1" id="stop1108"/>
    </linearGradient>
    <inkscape:path-effect effect="spiro" id="path-effect1052" is_visible="true" lpeversion="1"/>
    <inkscape:path-effect effect="spiro" id="path-effect1028" is_visible="true" lpeversion="1"/>
    <inkscape:path-effect effect="spiro" id="path-effect984" is_visible="true" lpeversion="1"/>
    <inkscape:path-effect effect="spiro" id="path-effect980" is_visible="true" lpeversion="1"/>
    <inkscape:path-effect effect="spiro" id="path-effect970" is_visible="true" lpeversion="1"/>
    <inkscape:path-effect effect="spiro" id="path-effect952" is_visible="true" lpeversion="1"/>
    <inkscape:path-effect effect="spiro" id="path-effect915" is_visible="true" lpeversion="1"/>
    <inkscape:path-effect effect="spiro" id="path-effect907" is_visible="true" lpeversion="1"/>
    <inkscape:path-effect effect="spiro" id="path-effect903" is_visible="true" lpeversion="1"/>
    <inkscape:path-effect effect="spiro" id="path-effect893" is_visible="true" lpeversion="1"/>
    <linearGradient inkscape:collect="always" xlink:href="#linearGradient1110" id="linearGradient1112" x1="19.030003" y1="15.422248" x2="-4.9192147" y2="-4.3900256" gradientUnits="userSpaceOnUse" gradientTransform="matrix(1.6610417,0,0,1.6464709,1.2509779,3.1519794)"/>
    <radialGradient inkscape:collect="always" xlink:href="#linearGradient1191" id="radialGradient1193" cx="13.973477" cy="7.0335922" fx="13.973477" fy="7.0335922" r="2.1876698" gradientTransform="matrix(1.5011477,-1.3516452,0.9733656,1.1807362,-5.4791836,23.867113)" gradientUnits="userSpaceOnUse"/>
    <radialGradient inkscape:collect="always" xlink:href="#linearGradient1191" id="radialGradient1201" cx="5.3233461" cy="7.3004756" fx="5.3233461" fy="7.3004756" r="2.1543889" gradientTransform="matrix(2.2971341,0,0,1.3394089,-2.4297463,7.4407788)" gradientUnits="userSpaceOnUse"/>
    <radialGradient inkscape:collect="always" xlink:href="#linearGradient1191" id="radialGradient10281" gradientUnits="userSpaceOnUse" gradientTransform="matrix(1.7403176,-1.5912531,1.1284468,1.3900468,-7.930432,29.512434)" cx="13.973477" cy="7.0335922" fx="13.973477" fy="7.0335922" r="2.1876698"/>
  </defs>
  <sodipodi:namedview id="base" pagecolor="#ffffff" bordercolor="#666666" borderopacity="1.0" inkscape:pageopacity="0.0" inkscape:pageshadow="2" inkscape:zoom="3.959798" inkscape:cx="44.495718" inkscape:cy="36.395931" inkscape:document-units="mm" inkscape:current-layer="layer1" inkscape:document-rotation="0" showgrid="false" inkscape:window-width="1920" inkscape:window-height="1043" inkscape:window-x="1920" inkscape:window-y="0" inkscape:window-maximized="1" units="px" showguides="false">
    <inkscape:grid type="xygrid" id="grid958"/>
  </sodipodi:namedview>
  <metadata id="metadata5">
    <rdf:RDF>
      <cc:Work rdf:about="">
        <dc:format>image/svg+xml</dc:format>
        <dc:type rdf:resource="http://purl.org/dc/dcmitype/StillImage"/>
        <dc:title/>
      </cc:Work>
    </rdf:RDF>
  </metadata>
  <g inkscape:label="Layer 1" inkscape:groupmode="layer" id="layer1" style="display:inline">
    <path id="path853" style="fill:url(#linearGradient1112);fill-opacity:1;fill-rule:nonzero;stroke:none;stroke-width:0.451992;stroke-linecap:square;stroke-miterlimit:4;stroke-dasharray:none;stroke-opacity:1;paint-order:markers fill stroke" d="m 32.789477,28.166932 c -1.121989,1.429221 -3.301156,1.116331 -5.383159,1.0216 L 4.4124511,29.108306 c 0,0 -2.2765418,-0.07029 -2.8438766,-0.877958 C -0.78309766,24.882462 1.2095201,19.722815 2.2155743,16.008743 2.6001349,14.589053 2.4397511,13.500456 3.1056555,12.434436 4.0370618,10.943386 2.071126,13.122775 2.7727417,11.376822 3.1940005,10.328531 5.1724014,8.3933048 6.7040669,7.3253792 9.487905,5.384399 13.022718,4.2039739 16.426147,4.2321186 c 2.169356,0.017939 6.687573,0.407243 8.568687,1.085658 1.400477,0.5050753 3.968728,1.2618978 2.933399,2.44833 -0.35839,0.4106946 -0.729685,0.084148 -0.273445,0.3735009 0.912477,0.5787075 0.849082,0.5129074 1.574205,1.2843597 2.438501,2.5943008 4.521366,7.9887968 3.656279,9.2960588 -0.600172,0.906944 -0.813703,0.271706 -0.595933,1.06549 0.31588,3.70386 2.234089,6.172663 0.500138,8.381416 z" sodipodi:nodetypes="accassssssssssca"/>
    <g id="g871" style="mix-blend-mode:overlay" transform="matrix(2.0521502,0,0,2.0839179,-1.7582191,1.6257305)"/>
    <path id="path888" style="fill:url(#radialGradient10281);fill-opacity:1;stroke:none;stroke-width:0.301793;stroke-linecap:round;stroke-linejoin:round;stroke-miterlimit:4;stroke-dasharray:none;stroke-opacity:0.972549;paint-order:markers fill stroke" d="m 29.09552,18.546116 c -0.446461,0.165578 -0.765358,1.708438 -1.31563,2.051128 -0.550273,0.342689 -1.649571,-2.728652 -2.119442,-2.38205 -0.430184,0.317327 -0.934361,0.320341 -1.591384,0.09668 -0.328511,-0.111829 -0.881927,0.892328 -1.296718,0.678113 -0.414789,-0.214215 -0.621556,-1.940254 -1.21174,-1.941492 -2.382242,-0.0049 -2.708996,-0.135136 -2.228573,-1.038298 0.71655,-1.347078 1.003657,-1.320524 1.763505,-1.525109 0.690305,-0.185861 3.285375,-0.185986 4.481539,0.161231 1.909405,0.554252 4.109092,3.680749 3.518443,3.8998 z" sodipodi:nodetypes="ssssssssss"/>
    <path id="path888-7" style="fill:url(#radialGradient1201);fill-opacity:1;stroke:none;stroke-width:0.29922;stroke-linecap:round;stroke-linejoin:round;stroke-miterlimit:4;stroke-dasharray:none;stroke-opacity:1;paint-order:markers fill stroke" d="m 7.6238607,20.103548 c 1.111048,-0.04164 0.8453907,-1.006423 1.3889978,-1.5261 0.4998759,-0.47787 0.1240703,-0.325447 0.8101541,-0.235459 0.6860854,0.08999 2.1285894,-1.078629 2.7832114,-1.1312 2.157023,-0.17322 2.413622,-0.550254 1.941177,-1.420267 -0.718469,-1.323072 -1.326495,-1.232231 -2.086343,-1.433342 -0.690304,-0.182705 -4.6066561,0.740162 -5.7979857,1.099414 -1.9073913,0.575184 -2.378123,4.070352 -1.0862012,4.235194 0.4766893,0.06083 1.1712811,-1.316675 1.1539728,-0.852809 -0.04384,1.174904 0.5075061,1.279019 0.8930168,1.264569 z" sodipodi:nodetypes="ssssssssss"/>
    <path id="path861-3" style="display:inline;fill:#cdcf07;fill-opacity:1;stroke:none;stroke-width:0.42995;stroke-linecap:round;stroke-linejoin:round;stroke-miterlimit:4;stroke-dasharray:none;stroke-opacity:0.462745;paint-order:markers fill stroke" inkscape:transform-center-x="0.31056699" inkscape:transform-center-y="0.13304001" d="M 12.944258,7.6108024 12.45217,5.1130558 11.083701,2.6953794 9.5124573,4.6223552 C 7.5088996,6.8173135 7.8184304,7.4841002 10.562935,7.7039762 Z M 2.6005442,12.218026 0.86172528,10.242627 0.346889,7.2245169 2.8992185,7.6120756 c 3.0016091,0.00569 3.0973064,0.7186035 1.2069089,2.9683294 z M 8.1537469,6.9884507 C 8.508803,7.8176648 8.1368986,8.1288747 7.1945784,8.5449477 6.252264,8.9610205 5.7472691,9.0162839 5.3922134,8.1870714 5.0371574,7.3578573 5.3803304,6.9964473 6.3226447,6.5803746 7.26496,6.1643016 7.7986908,6.1592368 8.1537469,6.9884507 Z" sodipodi:nodetypes="ccccccccccccsssss"/>
    <g id="g10241" transform="matrix(0.89974969,0,0,-0.76074158,2.1275709,34.459036)" style="stroke-width:1.28217;stroke-miterlimit:4;stroke-dasharray:none">
      <path id="path10211-0" style="display:inline;opacity:0.830234;mix-blend-mode:normal;fill:none;stroke:#000000;stroke-width:0.999757;stroke-linecap:round;stroke-linejoin:miter;stroke-miterlimit:4;stroke-dasharray:none;stroke-opacity:0.89" d="m 23.269683,17.608358 c -0.0948,0.0013 -1.648583,1.805466 -2.683213,1.891765 -1.529237,0.127554 -2.448087,-0.623348 -4.249669,-2.110863 -1.801581,1.487515 -3.1429,2.166704 -4.81509,1.887085 C 10.58563,19.119816 9.2638244,17.377131 9.1690256,17.375831" sodipodi:nodetypes="cacac"/>
    </g>
    <path id="path10247" style="opacity:0.815664;mix-blend-mode:normal;fill:#000000;fill-opacity:0.89;stroke-width:0.143733;paint-order:markers fill stroke" d="m 27.561831,9.2015257 c 0,0.7394096 -2.978134,4.0574003 -5.318489,4.3823993 -1.657621,0.230189 -3.309234,0.54309 -3.309234,-0.196315 0,-0.739409 0.256877,-2.743198 1.929925,-2.743198 1.673048,0 6.697798,-1.3977044 6.697798,-1.4428863 z" sodipodi:nodetypes="csssc"/>
    <path id="path10247-9" style="display:inline;opacity:0.815664;mix-blend-mode:normal;fill:#020202;fill-opacity:0.89;stroke-width:0.143733;paint-order:markers fill stroke" d="m 6.0901707,9.2015257 c 0,0.7394096 2.9781336,4.0573993 5.3184883,4.3823983 1.657621,0.230189 3.309234,0.54309 3.309234,-0.196315 0,-0.739409 -0.256877,-2.743197 -1.929925,-2.743197 -1.673048,0 -6.6977973,-1.3977044 -6.6977973,-1.4428863 z" sodipodi:nodetypes="csssc"/>
  </g>
  <g inkscape:groupmode="layer" id="layer2" inkscape:label="Layer 2" style="display:inline;opacity:1">
    <path id="path10283" style="opacity:0.830234;fill:#ffffff;fill-opacity:0.46000001;stroke:none;stroke-width:0.708001;stroke-linecap:round;stroke-miterlimit:4;stroke-dasharray:none;stroke-opacity:0.89;paint-order:stroke fill markers" d="m 1.8063756,23.640573 c 0.012034,1.02574 0.1009454,2.448665 0.5473866,3.434309 0.4464411,0.985644 1.8474614,1.411411 1.5914753,1.482508 -2.3345491,0.648394 -3.31941643,-2.72652 -3.11831302,-4.848688 0.18828492,-1.9869 0.42620332,-3.851108 0.91802722,-3.851108 0.4918239,0 0.038011,1.787315 0.061424,3.782979 z" sodipodi:nodetypes="ssssss"/>
    <path id="path10285" style="opacity:0.830234;fill:#ffffff;fill-opacity:0.45576894;stroke:none;stroke-width:0.708001;stroke-linecap:round;stroke-miterlimit:4;stroke-dasharray:none;stroke-opacity:0.89;paint-order:stroke fill markers" d="m 27.879178,7.0782981 c 0,0.23662 -1.174349,-0.4967605 -1.651186,-0.4967606 -0.476837,-2e-7 -1.7892,-0.5055341 -1.65249,-0.6986645 0.271192,-0.3831137 1.45501,0.037172 1.758156,0.1309972 0.455518,0.1409854 1.54552,0.8278079 1.54552,1.0644279 z" sodipodi:nodetypes="sssss"/>
  </g>
  <g inkscape:groupmode="layer" id="layer3" inkscape:label="Layer 3" style="display:none;opacity:1"/>
  <g inkscape:groupmode="layer" id="layer4" inkscape:label="Layer 4" style="display:none;mix-blend-mode:overlay"/>
</svg>