<?xml version="1.0" encoding="UTF-8" standalone="no"?>
<svg
   xmlns:dc="http://purl.org/dc/elements/1.1/"
   xmlns:cc="http://creativecommons.org/ns#"
   xmlns:rdf="http://www.w3.org/1999/02/22-rdf-syntax-ns#"
   xmlns:svg="http://www.w3.org/2000/svg"
   xmlns="http://www.w3.org/2000/svg"
   xmlns:sodipodi="http://sodipodi.sourceforge.net/DTD/sodipodi-0.dtd"
   xmlns:inkscape="http://www.inkscape.org/namespaces/inkscape"
   width="72"
   height="72"
   viewBox="0 0 19.050001 19.050001"
   version="1.1"
   id="svg8"
   inkscape:version="1.0.2 (1.0.2+r75+1)"
   sodipodi:docname="enemy_idea1.svg"
   inkscape:export-filename="/home/mag/Desktop/cs-320-game/GraphicsProjectJava/res/icons/enemy-yellow.png"
   inkscape:export-xdpi="96"
   inkscape:export-ydpi="96">
  <defs
     id="defs2">
    <inkscape:path-effect
       effect="spiro"
       id="path-effect1044"
       is_visible="true"
       lpeversion="1" />
    <inkscape:path-effect
       effect="spiro"
       id="path-effect1036"
       is_visible="true"
       lpeversion="1" />
    <inkscape:path-effect
       effect="spiro"
       id="path-effect1009"
       is_visible="true"
       lpeversion="1" />
    <inkscape:path-effect
       effect="spiro"
       id="path-effect961"
       is_visible="true"
       lpeversion="1" />
    <inkscape:path-effect
       effect="spiro"
       id="path-effect914"
       is_visible="true"
       lpeversion="1" />
    <inkscape:path-effect
       effect="spiro"
       id="path-effect909"
       is_visible="true"
       lpeversion="1" />
    <inkscape:path-effect
       effect="spiro"
       id="path-effect884"
       is_visible="true"
       lpeversion="1" />
    <inkscape:path-effect
       effect="spiro"
       id="path-effect880"
       is_visible="true"
       lpeversion="1" />
  </defs>
  <sodipodi:namedview
     id="base"
     pagecolor="#ffffff"
     bordercolor="#666666"
     borderopacity="1.0"
     inkscape:pageopacity="0.0"
     inkscape:pageshadow="2"
     inkscape:zoom="7.9999996"
     inkscape:cx="51.479726"
     inkscape:cy="34.702234"
     inkscape:document-units="mm"
     inkscape:current-layer="g1053"
     inkscape:document-rotation="0"
     showgrid="true"
     units="px"
     inkscape:window-width="1848"
     inkscape:window-height="1016"
     inkscape:window-x="72"
     inkscape:window-y="27"
     inkscape:window-maximized="1">
    <inkscape:grid
       type="xygrid"
       id="grid851" />
  </sodipodi:namedview>
  <metadata
     id="metadata5">
    <rdf:RDF>
      <cc:Work
         rdf:about="">
        <dc:format>image/svg+xml</dc:format>
        <dc:type
           rdf:resource="http://purl.org/dc/dcmitype/StillImage" />
        <dc:title></dc:title>
      </cc:Work>
    </rdf:RDF>
  </metadata>
  <g
     inkscape:label="Layer 1"
     inkscape:groupmode="layer"
     id="layer1">
    <g
       id="g1053"
       transform="translate(0,-0.264583)">
      <g
         id="g881"
         transform="matrix(1.4447109,0,0,1.5380273,0.37064684,-0.12417434)">
        <ellipse
           style="fill:#e5c200;fill-opacity:1;stroke:#816e00;stroke-width:0.673829;stroke-linecap:round;stroke-linejoin:round;stroke-miterlimit:4;stroke-dasharray:none;stroke-opacity:1;paint-order:markers fill stroke"
           id="path853"
           cx="6.2279587"
           cy="7.1853733"
           rx="5.2875032"
           ry="4.8870382" />
        <path
           id="path882"
           style="fill:#f2f7ff;fill-opacity:1;stroke:#181500;stroke-width:0.250299;stroke-linecap:butt;stroke-linejoin:bevel;stroke-miterlimit:4;stroke-dasharray:none;stroke-opacity:1"
           inkscape:path-effect="#path-effect884"
           inkscape:original-d="M 2.8883636,4.9493766 C 3.0803952,4.6323407 4.0366031,4.1423305 4.3511472,4.3848328 4.8565166,4.774455 4.8319341,5.6795678 5.3600445,5.2741886 5.6010091,5.0892234 5.6345585,5.8792211 5.3596966,6.2569154 5.0848348,6.6346098 4.5677773,7.054571 4.4615973,7.0513768 4.02863,7.038352 3.773997,6.8067441 3.4527856,6.7970812 2.8757534,6.7797225 3.4235598,6.5175913 3.1515859,6.5010697 1.2715568,6.3868631 2.5469979,6.4586744 2.6428692,6.1944251 2.626122,6.0766965 2.6963364,5.2664124 2.8883636,4.9493766 Z"
           d="M 2.8883636,4.9493766 C 3.0517116,4.7262415 3.2785448,4.5495535 3.5361251,4.4489341 3.7937054,4.3483148 4.0812608,4.324557 4.3511472,4.3848328 4.5792394,4.4357744 4.7936221,4.5460948 4.9686202,4.7010036 5.1436183,4.8559125 5.2789745,5.0549884 5.3600445,5.2741886 5.4761398,5.5880918 5.4782187,5.9439204 5.3596966,6.2569154 5.2859155,6.4517576 5.1663942,6.6295928 5.0112112,6.7686086 4.8560283,6.9076244 4.6652182,7.0072669 4.4615973,7.0513768 4.110467,7.1274413 3.7264744,7.0298316 3.4527856,6.7970812 3.3455135,6.7058548 3.2553705,6.5962449 3.1515859,6.5010697 3.0046851,6.366355 2.8305929,6.2614156 2.6428692,6.1944251 2.5379564,5.7704197 2.6303529,5.3018219 2.8883636,4.9493766 Z"
           sodipodi:nodetypes="ssssssscs" />
        <path
           id="path882-6"
           style="fill:#f2f7ff;fill-opacity:1;stroke:#181500;stroke-width:0.250299;stroke-linecap:butt;stroke-linejoin:bevel;stroke-miterlimit:4;stroke-dasharray:none;stroke-opacity:1"
           inkscape:path-effect="#path-effect909"
           inkscape:original-d="M 7.314512,5.0286854 C 7.5065436,4.7116495 8.4627513,4.2216393 8.7772959,4.4641417 9.2826651,4.8537638 9.2580823,5.7588766 9.7861927,5.3534974 10.027157,5.1685323 10.060707,5.95853 9.7858448,6.3362242 9.5109835,6.7139186 8.9939256,7.1338798 8.8877458,7.1306856 8.4547782,7.1176608 8.2001457,6.8860529 7.8789343,6.87639 7.3019018,6.8590313 7.8497086,6.5969001 7.5777347,6.5803785 5.6977051,6.4661719 6.9731462,6.5379832 7.0690174,6.2737339 7.0522702,6.1560054 7.1224847,5.3457212 7.314512,5.0286854 Z"
           d="M 7.314512,5.0286854 C 7.4778601,4.8055502 7.7046933,4.6288623 7.9622737,4.5282429 8.219854,4.4276235 8.5074094,4.4038658 8.7772959,4.4641417 9.005388,4.5150833 9.2197706,4.6254038 9.3947686,4.7803126 9.5697666,4.9352214 9.7051228,5.1342972 9.7861927,5.3534974 9.902288,5.6674006 9.9043668,6.0232292 9.7858448,6.3362242 9.7120638,6.5310664 9.5925424,6.7089015 9.4373596,6.8479173 9.2821767,6.9869331 9.0913666,7.0865757 8.8877458,7.1306856 8.5366156,7.2067502 8.152623,7.1091404 7.8789343,6.87639 7.7716622,6.7851636 7.6815193,6.6755537 7.5777347,6.5803785 7.4308338,6.4456637 7.2567413,6.3407242 7.0690174,6.2737339 6.9641047,5.8497285 7.0565012,5.3811307 7.314512,5.0286854 Z"
           sodipodi:nodetypes="ssssssscs" />
        <ellipse
           style="fill:#000000;fill-opacity:1;stroke:#000000;stroke-width:0.0580222;stroke-linecap:round;stroke-linejoin:bevel;stroke-miterlimit:4;stroke-dasharray:none;stroke-opacity:1;paint-order:markers fill stroke"
           id="path1012"
           cx="3.2961988"
           cy="5.4688525"
           rx="0.36850005"
           ry="0.34059057" />
        <ellipse
           style="fill:#000000;fill-opacity:1;stroke:#000000;stroke-width:0.0580222;stroke-linecap:round;stroke-linejoin:bevel;stroke-miterlimit:4;stroke-dasharray:none;stroke-opacity:1;paint-order:markers fill stroke"
           id="path1012-6"
           cx="7.7159333"
           cy="5.4875941"
           rx="0.36850005"
           ry="0.34059057" />
        <path
           style="fill:none;stroke:#383000;stroke-width:1.24796;stroke-linecap:butt;stroke-linejoin:bevel;stroke-miterlimit:4;stroke-dasharray:none;stroke-opacity:1"
           d="M 1.6713877,1.6114864 C 2.28531,1.5702673 2.9111339,1.73103 3.4291826,2.0630317 3.9472313,2.3950335 4.3547165,2.8964874 4.5737145,3.4715 c 0.064572,0.1695428 0.1134688,0.3447171 0.17769,0.5143929 0.064221,0.1696759 0.1452126,0.3345487 0.2576518,0.4769274 0.1124391,0.1423787 0.2559726,0.2597798 0.4172683,0.3428337 0.1612957,0.083054 0.3381201,0.1305187 0.5142348,0.1740833 l 0.1671254,0.041341 c 0.089338,0.022099 0.180108,0.042692 0.2721292,0.041356 0.092021,-0.00134 0.1840066,-0.024831 0.2637156,-0.070832 0.079709,-0.046002 0.146034,-0.1132384 0.1971607,-0.1897612 0.051127,-0.076523 0.0877,-0.1617591 0.1203504,-0.2478035 C 7.0270207,4.3801577 7.0788838,4.2010695 7.1483129,4.0285378 7.2177419,3.8560061 7.3063195,3.6881185 7.4352474,3.5540842 7.6382791,3.3430111 7.9269349,3.2319814 8.2163058,3.1868348 c 0.2893709,-0.045147 0.5841917,-0.03054 0.8770283,-0.026018 0.9706739,0.01499 1.9430399,-0.08266 2.8913499,-0.2903624"
           id="path1034"
           inkscape:path-effect="#path-effect1036"
           inkscape:original-d="M 1.6713877,1.6114864 C 2.3850807,2.3910275 3.8604106,2.6923187 4.5737145,3.4715 5.2870185,4.2506812 5.5067297,4.872422 5.9405594,4.9797373 l 0.1671254,0.041341 C 6.3516502,5.0814277 6.6369178,4.6741192 6.9610407,4.5540376 7.2851635,4.4339556 7.0614083,3.8139869 7.4352474,3.5540842 7.8119831,3.2921671 8.3910307,3.2262737 9.0933341,3.1608169 9.7956375,3.0953601 11.498305,3.050397 11.984684,2.8704545"
           sodipodi:nodetypes="cssssssc" />
        <path
           style="fill:none;stroke:#383000;stroke-width:0.682314;stroke-linecap:butt;stroke-linejoin:miter;stroke-miterlimit:4;stroke-dasharray:none;stroke-opacity:1"
           d="M 2.64434,9.7048527 C 3.0522115,9.7220949 3.464332,9.6241984 3.8208782,9.4253737 4.0938968,9.2731274 4.3315745,9.0652572 4.5944708,8.8961313 5.408108,8.3727039 6.4171921,8.2486158 7.3843646,8.2722591 7.7672526,8.2816191 8.1606441,8.3148161 8.5042181,8.484073 8.7609219,8.6105342 8.9819187,8.8131799 9.117227,9.0653325 9.193571,9.2076026 9.2424587,9.364542 9.2604167,9.5249997"
           id="path1042"
           inkscape:path-effect="#path-effect1044"
           inkscape:original-d="M 2.64434,9.7048527 C 3.098579,9.6450816 3.3670284,9.4855044 3.8208782,9.4253737 4.2747281,9.3652423 4.3177222,9.0929477 4.5944708,8.8961313 5.2354852,8.4402572 6.0090184,8.5387622 7.3843646,8.2722591 8.1989984,8.1144064 7.8073645,8.4978068 8.5042181,8.484073 8.7454298,8.4793147 8.7931046,8.8856596 9.117227,9.0653325 9.4413502,9.2450054 9.1308845,9.2853762 9.2604167,9.5249997"
           sodipodi:nodetypes="csssssc" />
      </g>
    </g>
  </g>
</svg>
