<?xml version="1.0" encoding="UTF-8" standalone="no"?>
<svg
   xmlns:dc="http://purl.org/dc/elements/1.1/"
   xmlns:cc="http://creativecommons.org/ns#"
   xmlns:rdf="http://www.w3.org/1999/02/22-rdf-syntax-ns#"
   xmlns:svg="http://www.w3.org/2000/svg"
   xmlns="http://www.w3.org/2000/svg"
   xmlns:xlink="http://www.w3.org/1999/xlink"
   xmlns:sodipodi="http://sodipodi.sourceforge.net/DTD/sodipodi-0.dtd"
   xmlns:inkscape="http://www.inkscape.org/namespaces/inkscape"
   width="1600"
   height="900"
   viewBox="0 0 423.33332 238.12501"
   version="1.1"
   id="svg8"
   inkscape:version="0.92.5 (2060ec1f9f, 2020-04-08)"
   sodipodi:docname="background.svg"
   inkscape:export-filename="/home/mag/Desktop/cs-320-game/GraphicsProjectJava/res/icons/background.png"
   inkscape:export-xdpi="102.272"
   inkscape:export-ydpi="102.272">
  <defs
     id="defs2">
    <linearGradient
       id="linearGradient5221"
       inkscape:collect="always">
      <stop
         id="stop5217"
         offset="0"
         style="stop-color:#a0a500;stop-opacity:1" />
      <stop
         id="stop5219"
         offset="1"
         style="stop-color:#0d723e;stop-opacity:1" />
    </linearGradient>
    <linearGradient
       inkscape:collect="always"
       id="linearGradient5204">
      <stop
         style="stop-color:#800063;stop-opacity:1"
         offset="0"
         id="stop5200" />
      <stop
         style="stop-color:#480b21;stop-opacity:1"
         offset="1"
         id="stop5202" />
    </linearGradient>
    <linearGradient
       inkscape:collect="always"
       id="linearGradient5193">
      <stop
         style="stop-color:#802800;stop-opacity:1"
         offset="0"
         id="stop5189" />
      <stop
         style="stop-color:#370808;stop-opacity:1"
         offset="1"
         id="stop5191" />
    </linearGradient>
    <linearGradient
       id="linearGradient5187"
       inkscape:collect="always">
      <stop
         id="stop5183"
         offset="0"
         style="stop-color:#804d00;stop-opacity:1" />
      <stop
         id="stop5185"
         offset="1"
         style="stop-color:#6f0c50;stop-opacity:1" />
    </linearGradient>
    <linearGradient
       inkscape:collect="always"
       id="linearGradient5173">
      <stop
         style="stop-color:#007580;stop-opacity:1"
         offset="0"
         id="stop5169" />
      <stop
         style="stop-color:#082037;stop-opacity:1"
         offset="1"
         id="stop5171" />
    </linearGradient>
    <linearGradient
       id="linearGradient5167"
       inkscape:collect="always">
      <stop
         id="stop5163"
         offset="0"
         style="stop-color:#007f99;stop-opacity:1" />
      <stop
         id="stop5165"
         offset="1"
         style="stop-color:#094f4f;stop-opacity:1" />
    </linearGradient>
    <linearGradient
       inkscape:collect="always"
       id="linearGradient5156">
      <stop
         style="stop-color:#5b0080;stop-opacity:1"
         offset="0"
         id="stop5152" />
      <stop
         style="stop-color:#350b48;stop-opacity:1"
         offset="1"
         id="stop5154" />
    </linearGradient>
    <linearGradient
       id="linearGradient5150"
       inkscape:collect="always">
      <stop
         id="stop5146"
         offset="0"
         style="stop-color:#80005f;stop-opacity:1" />
      <stop
         id="stop5148"
         offset="1"
         style="stop-color:#370955;stop-opacity:1" />
    </linearGradient>
    <linearGradient
       inkscape:collect="always"
       id="linearGradient5139">
      <stop
         style="stop-color:#00500e;stop-opacity:1"
         offset="0"
         id="stop5135" />
      <stop
         style="stop-color:#0b3f46;stop-opacity:1"
         offset="1"
         id="stop5137" />
    </linearGradient>
    <linearGradient
       id="linearGradient5131"
       inkscape:collect="always">
      <stop
         id="stop5127"
         offset="0"
         style="stop-color:#00803e;stop-opacity:1" />
      <stop
         id="stop5129"
         offset="1"
         style="stop-color:#0d3c7b;stop-opacity:1" />
    </linearGradient>
    <linearGradient
       id="linearGradient4864"
       inkscape:collect="always">
      <stop
         id="stop4860"
         offset="0"
         style="stop-color:#308000;stop-opacity:1" />
      <stop
         id="stop4862"
         offset="1"
         style="stop-color:#163508;stop-opacity:1" />
    </linearGradient>
    <linearGradient
       inkscape:collect="always"
       id="linearGradient4832">
      <stop
         style="stop-color:#80005f;stop-opacity:1"
         offset="0"
         id="stop4828" />
      <stop
         style="stop-color:#33073f;stop-opacity:1"
         offset="1"
         id="stop4830" />
    </linearGradient>
    <inkscape:path-effect
       effect="spiro"
       id="path-effect4753"
       is_visible="true" />
    <inkscape:path-effect
       effect="spiro"
       id="path-effect4747"
       is_visible="true" />
    <inkscape:path-effect
       effect="spiro"
       id="path-effect4743"
       is_visible="true" />
    <linearGradient
       inkscape:collect="always"
       id="linearGradient4628">
      <stop
         style="stop-color:#000a0f;stop-opacity:1"
         offset="0"
         id="stop4624" />
      <stop
         id="stop4634"
         offset="0.37621465"
         style="stop-color:#1a0036;stop-opacity:1" />
      <stop
         id="stop4632"
         offset="0.7171495"
         style="stop-color:#480058;stop-opacity:1" />
      <stop
         style="stop-color:#710036;stop-opacity:1"
         offset="1"
         id="stop4626" />
    </linearGradient>
    <linearGradient
       inkscape:collect="always"
       xlink:href="#linearGradient4628"
       id="linearGradient4630"
       x1="232.78111"
       y1="250.2849"
       x2="228.63618"
       y2="-0.22886994"
       gradientUnits="userSpaceOnUse"
       gradientTransform="matrix(1.0328299,0,0,1.0583643,-3.2173593,-5.3613189)" />
    <radialGradient
       inkscape:collect="always"
       xlink:href="#linearGradient5221"
       id="radialGradient4834"
       cx="323.57648"
       cy="49.943645"
       fx="323.57648"
       fy="49.943645"
       r="28.777143"
       gradientTransform="matrix(0.06530616,-0.42489872,1.0744185,0.06453923,94.299696,186.50483)"
       gradientUnits="userSpaceOnUse" />
    <radialGradient
       inkscape:collect="always"
       xlink:href="#linearGradient4864"
       id="radialGradient4858"
       cx="322.80823"
       cy="48.556782"
       fx="322.80823"
       fy="48.556782"
       r="48.59148"
       gradientTransform="matrix(0.01615868,-0.47286075,0.88569127,0.01182869,120.33917,204.07894)"
       gradientUnits="userSpaceOnUse" />
    <radialGradient
       inkscape:collect="always"
       xlink:href="#linearGradient5173"
       id="radialGradient4858-2"
       cx="322.80823"
       cy="48.556782"
       fx="322.80823"
       fy="48.556782"
       r="48.59148"
       gradientTransform="matrix(0.35684549,-0.80290029,2.374485,0.87731819,-169.33198,439.23554)"
       gradientUnits="userSpaceOnUse" />
    <radialGradient
       inkscape:collect="always"
       xlink:href="#linearGradient5167"
       id="radialGradient4834-2"
       cx="323.57648"
       cy="49.943645"
       fx="323.57648"
       fy="49.943645"
       r="28.777143"
       gradientTransform="matrix(0.45725573,-0.6723303,2.8471886,1.1511413,-227.72569,383.62305)"
       gradientUnits="userSpaceOnUse" />
    <radialGradient
       inkscape:collect="always"
       xlink:href="#linearGradient5139"
       id="radialGradient4858-6"
       cx="322.80823"
       cy="48.556782"
       fx="322.80823"
       fy="48.556782"
       r="48.59148"
       gradientTransform="matrix(0.38152323,0.11070724,-0.18361955,0.51790691,-107.26723,-36.350056)"
       gradientUnits="userSpaceOnUse" />
    <radialGradient
       inkscape:collect="always"
       xlink:href="#linearGradient5131"
       id="radialGradient4834-1"
       cx="323.57648"
       cy="49.943645"
       fx="323.57648"
       fy="49.943645"
       r="28.777143"
       gradientTransform="matrix(0.43329432,0.35796308,-0.62300614,0.58990728,-102.57852,-120.47073)"
       gradientUnits="userSpaceOnUse" />
    <radialGradient
       inkscape:collect="always"
       xlink:href="#linearGradient5193"
       id="radialGradient4858-7"
       cx="322.80823"
       cy="48.556782"
       fx="322.80823"
       fy="48.556782"
       r="48.59148"
       gradientTransform="matrix(-0.02567735,-0.5849983,-1.4074288,0.01463382,431.54309,411.80127)"
       gradientUnits="userSpaceOnUse" />
    <radialGradient
       inkscape:collect="always"
       xlink:href="#linearGradient5187"
       id="radialGradient4834-22"
       cx="323.57648"
       cy="49.943645"
       fx="323.57648"
       fy="49.943645"
       r="28.777143"
       gradientTransform="matrix(-0.10377631,-0.5256622,-1.7073304,0.07984452,472.92173,390.0595)"
       gradientUnits="userSpaceOnUse" />
    <radialGradient
       inkscape:collect="always"
       xlink:href="#linearGradient5204"
       id="radialGradient4858-2-9"
       cx="322.80823"
       cy="48.556782"
       fx="322.80823"
       fy="48.556782"
       r="48.59148"
       gradientTransform="matrix(-0.11007608,-0.22643413,-0.73245704,0.24742147,465.96672,98.589298)"
       gradientUnits="userSpaceOnUse" />
    <radialGradient
       inkscape:collect="always"
       xlink:href="#linearGradient4832"
       id="radialGradient4834-2-9"
       cx="323.57648"
       cy="49.943645"
       fx="323.57648"
       fy="49.943645"
       r="28.777143"
       gradientTransform="matrix(-0.14104961,-0.18961074,-0.87827186,0.32464513,483.97942,82.905446)"
       gradientUnits="userSpaceOnUse" />
    <radialGradient
       inkscape:collect="always"
       xlink:href="#linearGradient5156"
       id="radialGradient4858-3"
       cx="322.80823"
       cy="48.556782"
       fx="322.80823"
       fy="48.556782"
       r="48.59148"
       gradientTransform="matrix(-0.08088105,-0.20414968,-0.23179275,0.07598642,170.821,165.36885)"
       gradientUnits="userSpaceOnUse" />
    <radialGradient
       inkscape:collect="always"
       xlink:href="#linearGradient5150"
       id="radialGradient4834-0"
       cx="323.57648"
       cy="49.943645"
       fx="323.57648"
       fy="49.943645"
       r="28.777143"
       gradientTransform="matrix(-0.25745154,0.32633925,0.40417387,0.58253075,196.9065,-31.37986)"
       gradientUnits="userSpaceOnUse" />
  </defs>
  <sodipodi:namedview
     id="base"
     pagecolor="#ffffff"
     bordercolor="#666666"
     borderopacity="1.0"
     inkscape:pageopacity="0.0"
     inkscape:pageshadow="2"
     inkscape:zoom="0.49497475"
     inkscape:cx="713.03637"
     inkscape:cy="548.93448"
     inkscape:document-units="mm"
     inkscape:current-layer="layer1"
     inkscape:document-rotation="0"
     showgrid="false"
     units="px"
     inkscape:window-width="1848"
     inkscape:window-height="1016"
     inkscape:window-x="72"
     inkscape:window-y="27"
     inkscape:window-maximized="1" />
  <metadata
     id="metadata5">
    <rdf:RDF>
      <cc:Work
         rdf:about="">
        <dc:format>image/svg+xml</dc:format>
        <dc:type
           rdf:resource="http://purl.org/dc/dcmitype/StillImage" />
        <dc:title />
      </cc:Work>
    </rdf:RDF>
  </metadata>
  <g
     inkscape:label="Layer 1"
     inkscape:groupmode="layer"
     id="layer1"
     style="display:inline">
    <rect
       style="fill:url(#linearGradient4630);fill-opacity:1;stroke-width:0.59119511;stroke-linecap:square;paint-order:markers fill stroke"
       id="rect853"
       width="437.23138"
       height="252.02303"
       x="-2.8988318"
       y="-5.0724783" />
  </g>
  <g
     inkscape:groupmode="layer"
     id="layer2"
     inkscape:label="Layer 2"
     style="display:inline" />
  <g
     inkscape:groupmode="layer"
     id="layer3"
     inkscape:label="Layer 3">
    <g
       id="g5226"
       style="opacity:0.8"
       transform="matrix(1.5696357,0.72160295,-0.79682046,1.4214667,64.34823,-52.387293)">
      <path
         sodipodi:nodetypes="acaacaaaaccaaaaaaaacccaaaaaaaacaaaaaaaacccccaaaaaaaaa"
         inkscape:connector-curvature="0"
         id="path4751-5"
         d="m 151.19072,36.917524 c -2.95864,0.67687 -8.24706,2.88646 -8.24706,2.88646 2.18838,-0.75532 6.83003,-1.32918 10.36529,-1.44998 2.83736,-0.0969 5.69768,0.20675 8.47237,0.59 2.52818,0.3492 7.36341,1.54575 7.36341,1.54575 0,0 -3.8331,-0.75168 -5.81526,-0.90953 -4.57397,-0.36424 -9.30437,-0.61564 -13.83238,-0.0713 -3.48788,0.41928 -6.99596,1.21038 -9.86256,2.52141 -3.10906,1.42193 -6.09598,3.28105 -7.40775,5.54538 -1.56727,2.70539 -1.33648,5.95726 0.0118,8.63204 1.59349,3.16157 8.56439,7.9394 9.44818,8.0003 -1.90908,-0.86196 -2.7442,-4.04149 -2.93087,-6.19022 -0.1808,-2.08127 0.51997,-4.22394 1.78343,-6.15281 1.0355,-1.5808 2.60476,-3.07845 4.61547,-4.23511 2.18537,-1.25712 4.88808,-2.25606 7.75385,-2.74307 3.31204,-0.56286 6.90333,-0.42947 10.29544,-0.10228 3.06884,0.29602 6.19179,0.82613 8.83653,1.8433 1.36937,0.52666 2.60765,1.25741 3.42558,2.12274 0.62996,0.66647 1.02352,1.45935 1.01812,2.23348 -0.007,0.87663 -0.55916,1.77996 -1.18819,2.52284 0.37178,-1.05056 0.23586,-1.71149 -0.36401,-2.62531 -0.70899,-1.08008 -2.50152,-1.80488 -4.15123,-2.35205 -1.36068,-0.45132 -2.954,-0.60637 -4.48919,-0.68473 -1.51259,-0.0772 -3.0835,-0.0503 -4.53959,0.21716 -2.56258,0.47065 -5.4373,1.0493 -7.0504,2.3801 -2.40633,1.98517 -3.23726,4.82914 -2.62312,7.29013 0.58081,2.32733 2.751,4.64547 5.72196,6.09414 4.33359,2.11314 10.35425,3.23457 15.82351,2.89637 4.97625,-0.30772 9.95078,-2.02187 13.29233,-4.34754 3.54837,-2.46958 5.1704,-5.97341 5.83331,-9.26702 0.56518,-2.80804 -1.68744,-8.42477 -1.68744,-8.42477 0,0 0.35519,3.89172 -0.32107,5.7688 -0.96971,2.69163 -2.51491,5.43479 -5.25668,7.59683 -2.49675,1.96881 -5.77905,3.89285 -9.68213,4.49169 -4.42421,0.67881 -9.50248,0.0312 -13.49825,-1.33651 -2.42091,-0.82864 -4.57284,-2.24523 -5.49708,-3.87108 -0.75941,-1.33584 -0.47778,-2.91585 0.29299,-4.24914 0.51673,-0.89386 1.51602,-1.72446 2.76207,-2.26898 1.76257,-0.77024 4.01317,-1.19323 6.16367,-1.19134 0.29989,1.8e-4 0.85871,0.16763 0.85871,0.16763 0,0 -1.40182,0.38968 -1.91799,0.72803 -0.82366,0.53989 -1.46713,1.23551 -1.71081,1.96587 -0.24287,0.72806 -0.10206,1.52512 0.30969,2.22286 0.46289,0.7843 1.26282,1.53826 2.33074,2.04137 1.14019,0.53713 2.61656,0.80528 4.03714,0.89463 2.33511,0.14685 4.83474,-0.008 6.97172,-0.61478 1.86213,-0.52853 3.53929,-1.43058 4.64367,-2.50661 1.51984,-1.48079 2.42638,-3.31033 2.35278,-5.06913 -0.10784,-2.57638 -1.73942,-5.17373 -4.06279,-7.30271 -1.71708,-1.57341 -4.29895,-2.76996 -6.94295,-3.71639 -2.79187,-0.99935 -5.97132,-1.5674 -9.12458,-1.96614 -2.15478,-0.27248 -4.38617,-0.36218 -6.5804,-0.27702 -2.03315,0.0789 -4.08683,0.2886 -5.99983,0.72626 z"
         style="color:#000000;font-style:normal;font-variant:normal;font-weight:normal;font-stretch:normal;font-size:medium;line-height:normal;font-family:sans-serif;font-variant-ligatures:normal;font-variant-position:normal;font-variant-caps:normal;font-variant-numeric:normal;font-variant-alternates:normal;font-feature-settings:normal;text-indent:0;text-align:start;text-decoration:none;text-decoration-line:none;text-decoration-style:solid;text-decoration-color:#000000;letter-spacing:normal;word-spacing:normal;text-transform:none;writing-mode:lr-tb;direction:ltr;text-orientation:mixed;dominant-baseline:auto;baseline-shift:baseline;text-anchor:start;white-space:normal;shape-padding:0;clip-rule:nonzero;display:inline;overflow:visible;visibility:visible;opacity:1;isolation:auto;mix-blend-mode:normal;color-interpolation:sRGB;color-interpolation-filters:linearRGB;solid-color:#000000;solid-opacity:1;vector-effect:none;fill:url(#radialGradient4858);fill-opacity:1;fill-rule:nonzero;stroke:#003822;stroke-width:11.56773949;stroke-linecap:butt;stroke-linejoin:round;stroke-miterlimit:4;stroke-dasharray:none;stroke-dashoffset:0;stroke-opacity:0.9142857;paint-order:stroke fill markers;color-rendering:auto;image-rendering:auto;shape-rendering:auto;text-rendering:auto;enable-background:accumulate" />
      <path
         sodipodi:nodetypes="acaacaaaaccaaaaaaaacccaaaaaaaacaaaaaaaacccccaaaaaaaaa"
         inkscape:connector-curvature="0"
         id="path4751"
         d="m 155.80968,40.706444 c -2.08788,0.47766 -5.81985,2.03694 -5.81985,2.03694 1.54431,-0.53303 4.81987,-0.93799 7.31465,-1.02323 2.00229,-0.0684 4.02078,0.1459 5.97884,0.41635 1.78411,0.24642 5.19626,1.09081 5.19626,1.09081 0,0 -2.70496,-0.53044 -4.10375,-0.64183 -3.2278,-0.25705 -6.56597,-0.43446 -9.76132,-0.0503 -2.46136,0.29589 -4.93697,0.85415 -6.95988,1.77933 -2.19403,1.00344 -4.30185,2.31539 -5.22754,3.9133 -1.10601,1.90915 -0.94315,4.20396 0.008,6.09151 1.1245,2.23109 6.04377,5.60273 6.66745,5.64571 -1.34722,-0.60827 -1.93654,-2.85203 -2.06828,-4.36836 -0.12759,-1.46872 0.36694,-2.98077 1.25854,-4.34195 0.73073,-1.11556 1.83814,-2.17242 3.25708,-2.98866 1.54218,-0.88714 3.44945,-1.59207 5.47179,-1.93576 2.33727,-0.3972 4.87159,-0.30306 7.26535,-0.0722 2.16565,0.2089 4.36947,0.58299 6.23583,1.30079 0.96635,0.37166 1.84018,0.88734 2.41738,1.49799 0.44456,0.47032 0.72229,1.02985 0.71848,1.57614 -0.005,0.61862 -0.39459,1.2561 -0.8385,1.78034 0.26237,-0.74138 0.16646,-1.20778 -0.25686,-1.85266 -0.50033,-0.76219 -1.7653,-1.27367 -2.92948,-1.65981 -0.96021,-0.31849 -2.0846,-0.4279 -3.16795,-0.4832 -1.06742,-0.0545 -2.17599,-0.0354 -3.20354,0.15325 -1.80837,0.33213 -3.83702,0.74048 -4.97538,1.6796 -1.6981,1.40091 -2.28448,3.40786 -1.85109,5.14455 0.40987,1.64237 1.94135,3.27825 4.03791,4.30056 3.05815,1.49121 7.30685,2.28259 11.16644,2.04392 3.51168,-0.21715 7.02214,-1.4268 9.38023,-3.068 2.50403,-1.74275 3.64868,-4.21535 4.11648,-6.53962 0.39884,-1.9816 -1.1908,-5.94524 -1.1908,-5.94524 0,0 0.25065,2.74634 -0.22658,4.07097 -0.68431,1.89945 -1.77474,3.83526 -3.70957,5.36098 -1.76192,1.38936 -4.07819,2.74713 -6.83255,3.16973 -3.1221,0.47902 -6.70577,0.022 -9.52553,-0.94315 -1.70841,-0.58477 -3.227,-1.58444 -3.87922,-2.73178 -0.5359,-0.94269 -0.33717,-2.05768 0.20676,-2.99857 0.36465,-0.63078 1.06984,-1.21692 1.94915,-1.60119 1.24383,-0.54354 2.83204,-0.84204 4.34963,-0.8407 0.21162,1.2e-4 0.60598,0.11829 0.60598,0.11829 0,0 -0.98925,0.27499 -1.3535,0.51376 -0.58124,0.381 -1.03534,0.87189 -1.2073,1.38729 -0.17139,0.51378 -0.072,1.07625 0.21854,1.56864 0.32666,0.55347 0.89115,1.08554 1.64478,1.44057 0.80461,0.37905 1.84647,0.56828 2.84895,0.63132 1.64786,0.10364 3.41182,-0.006 4.91986,-0.43383 1.31407,-0.37298 2.49763,-1.00954 3.27698,-1.76889 1.07252,-1.04497 1.71226,-2.33605 1.66031,-3.57721 -0.0761,-1.81812 -1.22748,-3.65103 -2.86705,-5.15343 -1.21172,-1.11034 -3.03371,-1.95472 -4.89956,-2.6226 -1.97018,-0.70523 -4.21387,-1.1061 -6.43908,-1.38749 -1.52061,-0.19229 -3.09527,-0.25558 -4.6437,-0.19548 -1.43478,0.0557 -2.88402,0.20365 -4.23401,0.51251 z"
         style="color:#000000;font-style:normal;font-variant:normal;font-weight:normal;font-stretch:normal;font-size:medium;line-height:normal;font-family:sans-serif;font-variant-ligatures:normal;font-variant-position:normal;font-variant-caps:normal;font-variant-numeric:normal;font-variant-alternates:normal;font-feature-settings:normal;text-indent:0;text-align:start;text-decoration:none;text-decoration-line:none;text-decoration-style:solid;text-decoration-color:#000000;letter-spacing:normal;word-spacing:normal;text-transform:none;writing-mode:lr-tb;direction:ltr;text-orientation:mixed;dominant-baseline:auto;baseline-shift:baseline;text-anchor:start;white-space:normal;shape-padding:0;clip-rule:nonzero;display:inline;overflow:visible;visibility:visible;opacity:1;isolation:auto;mix-blend-mode:normal;color-interpolation:sRGB;color-interpolation-filters:linearRGB;solid-color:#000000;solid-opacity:1;vector-effect:none;fill:url(#radialGradient4834);fill-opacity:1;fill-rule:nonzero;stroke:none;stroke-width:0.11159869;stroke-linecap:butt;stroke-linejoin:miter;stroke-miterlimit:4;stroke-dasharray:none;stroke-dashoffset:0;stroke-opacity:1;color-rendering:auto;image-rendering:auto;shape-rendering:auto;text-rendering:auto;enable-background:accumulate" />
      <ellipse
         ry="1.6079867"
         rx="2.8534482"
         cy="52.052429"
         cx="168.61803"
         id="path4810"
         style="fill:#f8e588;fill-opacity:1;stroke:none;stroke-width:0.08872372;stroke-linecap:square;stroke-linejoin:round;stroke-miterlimit:4;stroke-dasharray:none;stroke-dashoffset:0;stroke-opacity:1" />
    </g>
    <g
       id="g5178"
       style="opacity:0.8">
      <path
         sodipodi:nodetypes="acaacaaaaccaaaaaaaacccaaaaaaaacaaaaaaaacccccaaaaaaaaa"
         inkscape:connector-curvature="0"
         id="path4751-5-3"
         d="m 24.436221,179.722 c -8.406725,-1.69058 -24.09585248,-2.98191 -24.09585248,-2.98191 6.38686028,0.80963 19.25228648,4.30675 28.84143348,7.51775 7.696157,2.57712 15.188554,5.86997 22.397891,9.2177 6.568865,3.05031 18.781625,9.79929 18.781625,9.79929 0,0 -9.812078,-5.00941 -15.039075,-7.20026 -12.061619,-5.05549 -24.618777,-10.06698 -37.158931,-13.5053 -9.6595627,-2.64847 -19.6198664,-4.67287 -28.199292,-5.1767 -9.305072,-0.54638 -18.571357,-0.21784 -23.600403,2.43274 -6.008602,3.16686 -7.542963,9.01919 -5.689018,14.95366 2.190866,7.01434 17.774709,22.0287 20.111549,22.98914 -4.563778,-3.33897 -4.702876,-9.65072 -3.780948,-13.55082 0.893017,-3.77765 4.197978,-6.80869 8.874749,-8.9253 3.83293,-1.73464 9.04645,-2.80897 15.2214183,-2.86594 6.7113203,-0.0619 14.6430947,0.82358 22.6741957,2.75297 9.281717,2.22985 18.85314,5.93506 27.760353,9.78307 8.058371,3.48127 16.10711,7.42015 22.546794,11.7395 3.334299,2.23642 6.180714,4.69931 7.80727,6.98848 1.252793,1.76314 1.785896,3.51636 1.258345,4.85117 -0.599289,1.5109 -2.683683,2.54023 -4.867981,3.21763 1.696261,-1.45889 1.768694,-2.73445 0.760785,-4.89664 -1.191215,-2.55552 -5.5324,-5.54432 -9.607143,-8.08747 -3.360848,-2.0976 -7.543778,-3.9074 -11.621183,-5.52824 -4.017384,-1.59698 -8.260649,-3.0701 -12.354489,-4.01582 -7.204704,-1.6644 -15.320587,-3.44383 -20.541478,-2.70076 -7.788161,1.10842 -11.907982,5.22755 -11.887077,10.08171 0.01989,4.59054 4.320894,10.7028 11.352069,16.08469 10.255996,7.8503 25.707107,15.61608 40.642399,20.32177 13.589014,4.28149 28.105497,6.12678 38.634863,5.33367 11.18106,-0.8421 17.86609,-5.33811 21.832,-10.3981 3.38118,-4.31403 1.04452,-16.21594 1.04452,-16.21594 0,0 -1.62379,7.08029 -4.6868,9.67532 -4.39216,3.72113 -10.36641,6.97475 -19.17406,8.06482 -8.020541,0.99264 -18.124366,1.14778 -29.019724,-1.59155 -12.350064,-3.10507 -25.580341,-9.13896 -35.421703,-15.37209 -5.962575,-3.77647 -10.812008,-8.31046 -12.220508,-12.01898 -1.157338,-3.04706 0.647309,-5.50962 3.604149,-7.07191 1.982278,-1.04739 5.220634,-1.51844 8.933138,-1.25555 5.251402,0.37185 11.585366,1.81693 17.368521,3.90067 0.806531,0.29042 2.198646,1.12091 2.198646,1.12091 0,0 -4.028842,-0.68162 -5.641486,-0.5953 -2.573268,0.13765 -4.765074,0.71937 -5.904552,1.7479 -1.135801,1.02532 -1.285289,2.54127 -0.640193,4.14741 0.725316,1.80547 2.37726,3.88447 4.916328,5.7885 2.710881,2.03282 6.504309,3.92528 10.266163,5.45424 6.183637,2.51326 13.009874,4.66305 19.159908,5.68046 5.358991,0.88657 10.46804,0.94763 14.151727,0.15344 5.069404,-1.09296 8.720316,-3.38292 9.687956,-6.49864 1.41741,-4.5641 -1.24985,-10.63859 -6.08827,-16.57162 -3.575835,-4.38476 -9.727531,-8.95378 -16.212106,-13.14995 -6.847239,-4.43082 -15.022827,-8.49005 -23.240161,-12.2308 -5.615344,-2.55628 -11.557865,-4.87026 -17.51632,-6.84559 -5.521066,-1.83032 -11.183974,-3.45416 -16.619615,-4.54726 z"
         style="color:#000000;font-style:normal;font-variant:normal;font-weight:normal;font-stretch:normal;font-size:medium;line-height:normal;font-family:sans-serif;font-variant-ligatures:normal;font-variant-position:normal;font-variant-caps:normal;font-variant-numeric:normal;font-variant-alternates:normal;font-feature-settings:normal;text-indent:0;text-align:start;text-decoration:none;text-decoration-line:none;text-decoration-style:solid;text-decoration-color:#000000;letter-spacing:normal;word-spacing:normal;text-transform:none;writing-mode:lr-tb;direction:ltr;text-orientation:mixed;dominant-baseline:auto;baseline-shift:baseline;text-anchor:start;white-space:normal;shape-padding:0;clip-rule:nonzero;display:inline;overflow:visible;visibility:visible;opacity:1;isolation:auto;mix-blend-mode:normal;color-interpolation:sRGB;color-interpolation-filters:linearRGB;solid-color:#000000;solid-opacity:1;vector-effect:none;fill:url(#radialGradient4858-2);fill-opacity:1;fill-rule:nonzero;stroke:#002726;stroke-width:26.62399673;stroke-linecap:butt;stroke-linejoin:round;stroke-miterlimit:4;stroke-dasharray:none;stroke-dashoffset:0;stroke-opacity:0.91428572;paint-order:stroke fill markers;color-rendering:auto;image-rendering:auto;shape-rendering:auto;text-rendering:auto;enable-background:accumulate" />
      <path
         sodipodi:nodetypes="acaacaaaaccaaaaaaaacccaaaaaaaacaaaaaaaacccccaaaaaaaaa"
         inkscape:connector-curvature="0"
         id="path4751-6"
         d="m 34.349203,190.74923 c -5.932519,-1.19304 -17.004139,-2.1043 -17.004139,-2.1043 4.507136,0.57134 13.586086,3.0392 20.353027,5.30517 5.431078,1.81864 10.718368,4.14237 15.805882,6.5048 4.635572,2.15256 13.253947,6.91525 13.253947,6.91525 0,0 -6.924236,-3.53509 -10.612867,-5.08114 -8.511748,-3.56759 -17.373152,-7.10414 -26.222559,-9.53049 -6.816616,-1.86901 -13.845479,-3.29761 -19.899878,-3.65313 -6.5664738,-0.3856 -13.1055495,-0.15365 -16.6544648,1.71675 -4.2402022,2.2348 -5.3229992,6.3647 -4.0148852,10.55251 1.5460739,4.94993 12.5433635,15.54538 14.1924582,16.22314 -3.22062683,-2.35627 -3.31877746,-6.81039 -2.66818114,-9.56263 0.63017814,-2.66584 2.96245424,-4.80481 6.26278244,-6.29849 2.7048404,-1.2241 6.3839665,-1.98222 10.7415645,-2.02244 4.7361,-0.0438 10.333431,0.58119 16.000882,1.94273 6.550004,1.57358 13.304414,4.1883 19.590108,6.90378 5.68669,2.45669 11.366576,5.23631 15.910992,8.28442 2.352967,1.57821 4.361628,3.31624 5.509479,4.93168 0.884077,1.2442 1.260278,2.48144 0.887995,3.42341 -0.422197,1.06646 -1.893849,1.79259 -3.435285,2.27062 1.197045,-1.02951 1.248173,-1.92966 0.536904,-3.45548 -0.840638,-1.80341 -3.904166,-3.91257 -6.779667,-5.70724 -2.371682,-1.48023 -5.323533,-2.75741 -8.200873,-3.9012 -2.835024,-1.12696 -5.829455,-2.16651 -8.718419,-2.83392 -5.084273,-1.17453 -10.811528,-2.43025 -14.495875,-1.90588 -5.495966,0.78222 -8.403296,3.68901 -8.388528,7.11455 0.01408,3.23948 3.049209,7.55281 8.010998,11.35073 7.237519,5.53986 18.141162,11.02007 28.680801,14.34081 9.589599,3.0214 19.833683,4.32359 27.264133,3.76392 7.89032,-0.59428 12.607875,-3.76706 15.406525,-7.33783 2.38608,-3.04434 0.73711,-11.44336 0.73711,-11.44336 0,0 -1.14588,4.99647 -3.30741,6.82774 -3.09949,2.62597 -7.31546,4.92198 -13.530889,5.69123 -5.659984,0.7005 -12.790118,0.80999 -20.478817,-1.12313 -8.715276,-2.19121 -18.051709,-6.44925 -24.996631,-10.84788 -4.207725,-2.66501 -7.629903,-5.86458 -8.623853,-8.48163 -0.816702,-2.15027 0.456789,-3.88807 2.543399,-4.99057 1.398881,-0.7391 3.684145,-1.07153 6.303985,-0.88601 3.70588,0.26242 8.175655,1.28219 12.256757,2.75266 0.56914,0.205 1.551558,0.791 1.551558,0.791 0,0 -2.843123,-0.48101 -3.981125,-0.42008 -1.815915,0.0972 -3.36266,0.50764 -4.166788,1.23345 -0.801504,0.72356 -0.907003,1.79334 -0.451751,2.92679 0.511837,1.27409 1.677576,2.74121 3.469385,4.08486 1.913036,1.43454 4.589996,2.77002 7.244685,3.84898 4.363706,1.77358 9.180914,3.29064 13.520907,4.00863 3.781762,0.62564 7.38716,0.66873 9.986698,0.10818 3.577391,-0.7713 6.153793,-2.38727 6.836632,-4.58601 1.000278,-3.2208 -0.881979,-7.50752 -4.29639,-11.69436 -2.523426,-3.09426 -6.864598,-6.31858 -11.440699,-9.27976 -4.831991,-3.12677 -10.601377,-5.9913 -16.400254,-8.63112 -3.962671,-1.80393 -8.156224,-3.43686 -12.36101,-4.83082 -3.896167,-1.29164 -7.892391,-2.43755 -11.728256,-3.20893 z"
         style="color:#000000;font-style:normal;font-variant:normal;font-weight:normal;font-stretch:normal;font-size:medium;line-height:normal;font-family:sans-serif;font-variant-ligatures:normal;font-variant-position:normal;font-variant-caps:normal;font-variant-numeric:normal;font-variant-alternates:normal;font-feature-settings:normal;text-indent:0;text-align:start;text-decoration:none;text-decoration-line:none;text-decoration-style:solid;text-decoration-color:#000000;letter-spacing:normal;word-spacing:normal;text-transform:none;writing-mode:lr-tb;direction:ltr;text-orientation:mixed;dominant-baseline:auto;baseline-shift:baseline;text-anchor:start;white-space:normal;shape-padding:0;clip-rule:nonzero;display:inline;overflow:visible;visibility:visible;opacity:1;isolation:auto;mix-blend-mode:normal;color-interpolation:sRGB;color-interpolation-filters:linearRGB;solid-color:#000000;solid-opacity:1;vector-effect:none;fill:url(#radialGradient4834-2);fill-opacity:1;fill-rule:nonzero;stroke:none;stroke-width:0.25685254;stroke-linecap:butt;stroke-linejoin:miter;stroke-miterlimit:4;stroke-dasharray:none;stroke-dashoffset:0;stroke-opacity:1;color-rendering:auto;image-rendering:auto;shape-rendering:auto;text-rendering:auto;enable-background:accumulate" />
      <ellipse
         transform="matrix(0.94098736,0.33844171,-0.35754917,0.93389431,0,0)"
         ry="2.9804885"
         rx="8.156517"
         cy="188.93268"
         cx="136.91396"
         id="path4810-0"
         style="fill:#88f8ee;fill-opacity:1;stroke:none;stroke-width:0.20422533;stroke-linecap:square;stroke-linejoin:round;stroke-miterlimit:4;stroke-dasharray:none;stroke-dashoffset:0;stroke-opacity:1" />
    </g>
    <g
       id="g5144"
       style="opacity:0.8"
       transform="translate(35.814116,-9.0871639)">
      <path
         sodipodi:nodetypes="acaacaaaaccaaaaaaaacccaaaaaaaacaaaaaaaacccccaaaaaaaaa"
         inkscape:connector-curvature="0"
         id="path4751-5-0"
         d="m 31.757841,18.290492 c 0.109259,-2.39745 -0.961219,-7.093396 -0.961219,-7.093396 0.24163,1.877893 -0.547719,5.438665 -1.54936,8.020765 -0.803908,2.072367 -2.122584,3.996621 -3.514014,5.826856 -1.267817,1.667637 -4.361949,4.639886 -4.361949,4.639886 0,0 2.203584,-2.4371 3.050795,-3.792191 1.954999,-3.126958 3.818214,-6.41232 4.607844,-9.879546 0.608238,-2.670772 0.752322,-5.508731 0.02859,-8.100723 C 28.273571,5.1009198 26.895185,2.1976157 24.456658,0.32786579 21.543144,-1.9060754 17.350481,-3.0764345 13.52352,-3.2092341 9.0001388,-3.3663308 0.67414848,-0.33517439 0.30840242,0.27291272 2.0232396,-0.74061657 6.3216846,-0.0328807 9.1032215,0.71597263 11.797435,1.4413249 14.281456,2.8234119 16.311028,4.5207646 c 1.663315,1.3910851 3.047024,3.1303733 3.854826,5.0458442 0.877958,2.0818452 1.260063,4.4282482 0.940744,6.6811882 -0.369033,2.603773 -1.710808,5.121612 -3.232909,7.417158 -1.377048,2.076787 -3.068177,4.096169 -5.219799,5.572936 -1.114044,0.764632 -2.443681,1.351523 -3.8064209,1.582017 -1.0495813,0.177531 -2.1820056,0.133787 -3.1603865,-0.18805 -1.107708,-0.364949 -2.0710552,-1.131669 -2.8062029,-1.88741 1.2087376,0.69784 2.0899418,0.871947 3.4428765,0.817573 1.599066,-0.06425 3.1021873,-1.050621 4.3337598,-2.007646 1.015815,-0.789351 1.732489,-1.86704 2.333087,-2.934588 0.591761,-1.051833 1.070698,-2.188219 1.207642,-3.341145 0.241001,-2.02902 0.447219,-4.326005 -0.710919,-6.028173 -1.727599,-2.539172 -5.0570624,-4.30255 -8.3735713,-4.873452 -3.1363851,-0.5398711 -6.7802191,0.06258 -9.5847226,1.595803 -4.0908111,2.236417 -7.4769881,6.088706 -8.8349931,10.145528 -1.235591,3.691138 -0.689905,7.958726 1.163389,11.307704 1.967939,3.556246 5.8745085,6.157365 9.8281452,7.985077 3.3707659,1.558246 11.2179565,2.251614 11.2179565,2.251614 0,0 -5.0434334,-1.344055 -7.1991984,-2.599497 -3.0912577,-1.800221 -6.0598054,-4.033863 -7.9017919,-6.885977 -1.6773523,-2.597228 -3.0414586,-5.738792 -2.5249619,-8.780744 0.5854525,-3.448103 3.0639358,-6.819922 6.1006034,-9.120523 1.83982735,-1.393863 4.3362127,-2.353551 6.6966037,-2.347823 1.9393699,0.0047 3.8478831,0.855407 5.2842842,1.955196 0.9629712,0.737302 1.6882672,1.79431 1.9707462,2.910583 0.399592,1.57899 0.200123,3.364947 -0.504611,4.904687 -0.09816,0.214756 -0.492692,0.546282 -0.492692,0.546282 0,0 -0.03555,-1.164248 -0.295371,-1.672988 C 9.622566,21.760155 8.9519664,21.013484 8.106825,20.538934 7.2643303,20.065905 6.2091632,19.839386 5.1912538,19.847749 c -1.1442082,0.0094 -2.3600728,0.27279 -3.3458487,0.831152 -1.05244965,0.59615 -1.87413493,1.543613 -2.45120031,2.524551 -0.94856289,1.61244 -1.56858899,3.466742 -1.49852579,5.246716 0.061032,1.551022 0.6554039,3.122975 1.65711812,4.356075 1.37850899,1.69696 3.39886978,3.097835 5.64977708,3.767521 3.2972519,0.980988 7.1186938,0.879045 10.5730638,0.08917 2.552924,-0.583765 4.911132,-1.941817 6.972936,-3.447111 2.177107,-1.589483 3.934728,-3.63376 5.469408,-5.728818 1.048732,-1.431666 1.891054,-2.993281 2.499834,-4.600101 0.56409,-1.488869 0.969333,-3.046141 1.03997,-4.596292 z"
         style="color:#000000;font-style:normal;font-variant:normal;font-weight:normal;font-stretch:normal;font-size:medium;line-height:normal;font-family:sans-serif;font-variant-ligatures:normal;font-variant-position:normal;font-variant-caps:normal;font-variant-numeric:normal;font-variant-alternates:normal;font-feature-settings:normal;text-indent:0;text-align:start;text-decoration:none;text-decoration-line:none;text-decoration-style:solid;text-decoration-color:#000000;letter-spacing:normal;word-spacing:normal;text-transform:none;writing-mode:lr-tb;direction:ltr;text-orientation:mixed;dominant-baseline:auto;baseline-shift:baseline;text-anchor:start;white-space:normal;shape-padding:0;clip-rule:nonzero;display:inline;overflow:visible;visibility:visible;opacity:1;isolation:auto;mix-blend-mode:normal;color-interpolation:sRGB;color-interpolation-filters:linearRGB;solid-color:#000000;solid-opacity:1;vector-effect:none;fill:url(#radialGradient4858-6);fill-opacity:1;fill-rule:nonzero;stroke:#003534;stroke-width:11.80328751;stroke-linecap:butt;stroke-linejoin:round;stroke-miterlimit:4;stroke-dasharray:none;stroke-dashoffset:0;stroke-opacity:0.98095236;paint-order:stroke fill markers;color-rendering:auto;image-rendering:auto;shape-rendering:auto;text-rendering:auto;enable-background:accumulate" />
      <path
         sodipodi:nodetypes="acaacaaaaccaaaaaaaacccaaaaaaaacaaaaaaaacccccaaaaaaaaa"
         inkscape:connector-curvature="0"
         id="path4751-2"
         d="m 25.452059,20.043014 c 0.07709,-1.691849 -0.67832,-5.005719 -0.67832,-5.005719 0.170514,1.325208 -0.386518,3.837995 -1.093363,5.660149 -0.567308,1.462443 -1.49788,2.820366 -2.479792,4.111933 -0.894684,1.176832 -3.078171,3.274306 -3.078171,3.274306 0,0 1.555039,-1.719824 2.152906,-2.676097 1.379619,-2.206657 2.694464,-4.52509 3.251693,-6.971863 0.429226,-1.884725 0.530903,-3.887438 0.02018,-5.716574 C 22.993257,10.735302 22.020548,8.6864852 20.299706,7.3670321 18.243681,5.7905667 15.284978,4.9646535 12.584365,4.8708879 9.3922688,4.760024 3.5167324,6.8990706 3.2586293,7.3281944 4.4687685,6.612952 7.5021248,7.1123937 9.4650197,7.6408507 c 1.9012673,0.511869 3.6542093,1.4871902 5.0864553,2.6849883 1.173779,0.981669 2.150241,2.209066 2.720295,3.560789 0.619562,1.469133 0.889211,3.124954 0.663873,4.714828 -0.260425,1.837453 -1.207296,3.614253 -2.28142,5.234188 -0.971766,1.465561 -2.165172,2.890612 -3.683545,3.932751 -0.786168,0.539591 -1.724473,0.953747 -2.6861395,1.116406 -0.7406739,0.125278 -1.5398114,0.09441 -2.2302432,-0.132703 -0.7817845,-0.257352 -1.4615175,-0.798608 -1.980298,-1.331926 0.8529886,0.492461 1.4748388,0.61533 2.4295887,0.57696 1.128441,-0.04534 2.1891753,-0.741417 3.058281,-1.41678 0.716846,-0.557028 1.222595,-1.317542 1.646425,-2.070889 0.417596,-0.742267 0.755579,-1.544203 0.852218,-2.357805 0.170067,-1.431856 0.315595,-3.052803 -0.501684,-4.25401 -1.21915,-1.791852 -3.5687029,-3.036251 -5.9091221,-3.439123 -2.2133072,-0.380979 -4.7847105,0.04417 -6.76381356,1.126134 -2.88682904,1.57821 -5.27641274,4.296718 -6.23473814,7.159566 -0.8719423,2.604789 -0.4868536,5.616368 0.8209854,7.979702 1.3887537,2.509593 4.1455669,4.345172 6.9355988,5.634957 2.3787044,1.099639 7.9163622,1.588936 7.9163622,1.588936 0,0 -3.5590851,-0.948485 -5.0803803,-1.834431 -2.1814584,-1.270395 -4.2763215,-2.84665 -5.5761886,-4.859347 -1.1836845,-1.832826 -2.146317,-4.049787 -1.7818347,-6.19645 0.4131478,-2.43328 2.16218456,-4.812727 4.3051159,-6.436234 1.2983426,-0.983633 3.0600083,-1.660872 4.7257033,-1.656827 1.3685883,0.0033 2.7154049,0.603648 3.7290519,1.379755 0.6795539,0.520307 1.1913849,1.266226 1.3907339,2.053957 0.28198,1.114281 0.141217,2.374603 -0.356101,3.461179 -0.06928,0.151545 -0.347685,0.385505 -0.347685,0.385505 0,0 -0.02509,-0.821602 -0.20844,-1.180607 C 9.8315085,22.491456 9.3582796,21.964536 8.7618771,21.629651 8.1673397,21.295842 7.4227198,21.13599 6.7043927,21.141895 c -0.8074519,0.0066 -1.6654736,0.192498 -2.3611226,0.586533 -0.742699,0.420696 -1.3225507,1.089303 -1.7297759,1.781538 -0.6693898,1.137878 -1.106917,2.446443 -1.0574938,3.702543 0.043071,1.094535 0.4625115,2.203844 1.1694065,3.074027 0.972797,1.197517 2.3985403,2.186096 3.9869745,2.658683 2.326828,0.692277 5.0235696,0.620336 7.4612716,0.06293 1.801567,-0.411956 3.465722,-1.370316 4.920714,-2.432587 1.536353,-1.121673 2.776679,-2.564289 3.859686,-4.042746 0.740076,-1.010308 1.334491,-2.112316 1.764096,-3.246224 0.398073,-1.050681 0.684048,-2.149624 0.733895,-3.243545 z"
         style="color:#000000;font-style:normal;font-variant:normal;font-weight:normal;font-stretch:normal;font-size:medium;line-height:normal;font-family:sans-serif;font-variant-ligatures:normal;font-variant-position:normal;font-variant-caps:normal;font-variant-numeric:normal;font-variant-alternates:normal;font-feature-settings:normal;text-indent:0;text-align:start;text-decoration:none;text-decoration-line:none;text-decoration-style:solid;text-decoration-color:#000000;letter-spacing:normal;word-spacing:normal;text-transform:none;writing-mode:lr-tb;direction:ltr;text-orientation:mixed;dominant-baseline:auto;baseline-shift:baseline;text-anchor:start;white-space:normal;shape-padding:0;clip-rule:nonzero;display:inline;overflow:visible;visibility:visible;opacity:1;isolation:auto;mix-blend-mode:normal;color-interpolation:sRGB;color-interpolation-filters:linearRGB;solid-color:#000000;solid-opacity:1;vector-effect:none;fill:url(#radialGradient4834-1);fill-opacity:1;fill-rule:nonzero;stroke:none;stroke-width:0.11387112;stroke-linecap:butt;stroke-linejoin:miter;stroke-miterlimit:4;stroke-dasharray:none;stroke-dashoffset:0;stroke-opacity:1;color-rendering:auto;image-rendering:auto;shape-rendering:auto;text-rendering:auto;enable-background:accumulate" />
      <ellipse
         transform="matrix(-0.41483147,0.90989826,-0.95119926,-0.30857732,0,0)"
         ry="2.1403728"
         rx="2.2464836"
         cy="-16.576578"
         cx="21.368147"
         id="path4810-3"
         style="fill:#acfbb8;fill-opacity:1;stroke:none;stroke-width:0.09082592;stroke-linecap:square;stroke-linejoin:round;stroke-miterlimit:4;stroke-dasharray:none;stroke-dashoffset:0;stroke-opacity:1" />
    </g>
    <g
       id="g5125">
      <g
         id="g5198"
         style="opacity:0.8">
        <path
           style="color:#000000;font-style:normal;font-variant:normal;font-weight:normal;font-stretch:normal;font-size:medium;line-height:normal;font-family:sans-serif;font-variant-ligatures:normal;font-variant-position:normal;font-variant-caps:normal;font-variant-numeric:normal;font-variant-alternates:normal;font-feature-settings:normal;text-indent:0;text-align:start;text-decoration:none;text-decoration-line:none;text-decoration-style:solid;text-decoration-color:#000000;letter-spacing:normal;word-spacing:normal;text-transform:none;writing-mode:lr-tb;direction:ltr;text-orientation:mixed;dominant-baseline:auto;baseline-shift:baseline;text-anchor:start;white-space:normal;shape-padding:0;clip-rule:nonzero;display:inline;overflow:visible;visibility:visible;opacity:1;isolation:auto;mix-blend-mode:normal;color-interpolation:sRGB;color-interpolation-filters:linearRGB;solid-color:#000000;solid-opacity:1;vector-effect:none;fill:url(#radialGradient4858-7);fill-opacity:1;fill-rule:nonzero;stroke:#290000;stroke-width:16.21926498;stroke-linecap:butt;stroke-linejoin:round;stroke-miterlimit:4;stroke-dasharray:none;stroke-dashoffset:0;stroke-opacity:0.91428572;paint-order:stroke fill markers;color-rendering:auto;image-rendering:auto;shape-rendering:auto;text-rendering:auto;enable-background:accumulate"
           d="m 382.51769,204.998 c 4.70149,0.8374 13.10518,3.57098 13.10518,3.57098 -3.47747,-0.93446 -10.85344,-1.6444 -16.47121,-1.79384 -4.50878,-0.11987 -9.05405,0.25592 -13.46322,0.72991 -4.01748,0.43201 -11.70102,1.91231 -11.70102,1.91231 0,0 6.09109,-0.92993 9.2409,-1.12522 7.26836,-0.4506 14.78532,-0.76163 21.98067,-0.0883 5.5425,0.51873 11.11711,1.49743 15.67235,3.11937 4.94052,1.75914 9.68695,4.05915 11.77145,6.86044 2.49051,3.34697 2.12378,7.37002 -0.0186,10.67912 -2.53217,3.91132 -13.60945,9.8222 -15.01387,9.89754 3.03367,-1.06637 4.36073,-4.99992 4.65737,-7.65821 0.28731,-2.57484 -0.82627,-5.22563 -2.83399,-7.61194 -1.6455,-1.9557 -4.13915,-3.8085 -7.33434,-5.23944 -3.47271,-1.55525 -7.76751,-2.79108 -12.32145,-3.3936 -5.26308,-0.69633 -10.9699,-0.5313 -16.36021,-0.1265 -4.87662,0.36622 -9.83921,1.02204 -14.0419,2.28044 -2.17604,0.65155 -4.14375,1.55559 -5.44349,2.62613 -1.00106,0.82451 -1.62645,1.80544 -1.61788,2.76313 0.0103,1.08454 0.88856,2.2021 1.88813,3.12115 -0.5908,-1.29972 -0.3748,-2.11736 0.57844,-3.24792 1.12662,-1.33621 3.97509,-2.23288 6.59661,-2.90981 2.16221,-0.55835 4.69412,-0.75017 7.13364,-0.84713 2.40362,-0.0955 4.89991,-0.0621 7.21375,0.26867 4.07213,0.58228 8.64027,1.29814 11.20362,2.94453 3.82382,2.45595 5.14424,5.97437 4.16832,9.01896 -0.92294,2.87926 -4.37154,5.74715 -9.09262,7.53935 -6.88639,2.61427 -16.45367,4.00165 -25.14471,3.58324 -7.90765,-0.3807 -15.81254,-2.50135 -21.1225,-5.37855 -5.63862,-3.05524 -8.21615,-7.38998 -9.26957,-11.46467 -0.8981,-3.47397 2.68147,-10.42266 2.68147,-10.42266 0,0 -0.56442,4.81462 0.51021,7.13685 1.54092,3.32994 3.99636,6.72364 8.35325,9.39838 3.96753,2.43571 9.18333,4.81603 15.38562,5.55689 7.03039,0.83979 15.10014,0.0387 21.4497,-1.65345 3.84702,-1.02516 7.2666,-2.77769 8.73528,-4.7891 1.20677,-1.65263 0.75924,-3.60735 -0.46558,-5.25682 -0.82112,-1.10584 -2.40907,-2.13341 -4.38914,-2.80705 -2.80085,-0.95292 -6.37722,-1.47621 -9.79452,-1.47388 -0.47655,2.1e-4 -1.36455,0.20739 -1.36455,0.20739 0,0 2.22759,0.48208 3.04783,0.90067 1.30885,0.66794 2.33136,1.52852 2.71859,2.43208 0.38595,0.90071 0.1623,1.8868 -0.49212,2.75001 -0.73558,0.97029 -2.00671,1.90305 -3.70371,2.52548 -1.81186,0.66451 -4.15791,0.99625 -6.41533,1.10676 -3.71065,0.18167 -7.68275,-0.0106 -11.07858,-0.76054 -2.95905,-0.65388 -5.62419,-1.76985 -7.37913,-3.10105 -2.41512,-1.83196 -3.85568,-4.09537 -3.73872,-6.27126 0.1714,-3.18738 2.76406,-6.40066 6.45606,-9.03453 2.72857,-1.94655 6.83135,-3.42685 11.03286,-4.59771 4.4365,-1.23634 9.48887,-1.93913 14.49963,-2.43243 3.42411,-0.33709 6.96996,-0.44805 10.45675,-0.34269 3.23083,0.0976 6.49426,0.35701 9.53418,0.89848 z"
           id="path4751-5-36"
           inkscape:connector-curvature="0"
           sodipodi:nodetypes="acaacaaaaccaaaaaaaacccaaaaaaaacaaaaaaaacccccaaaaaaaaa" />
        <path
           style="color:#000000;font-style:normal;font-variant:normal;font-weight:normal;font-stretch:normal;font-size:medium;line-height:normal;font-family:sans-serif;font-variant-ligatures:normal;font-variant-position:normal;font-variant-caps:normal;font-variant-numeric:normal;font-variant-alternates:normal;font-feature-settings:normal;text-indent:0;text-align:start;text-decoration:none;text-decoration-line:none;text-decoration-style:solid;text-decoration-color:#000000;letter-spacing:normal;word-spacing:normal;text-transform:none;writing-mode:lr-tb;direction:ltr;text-orientation:mixed;dominant-baseline:auto;baseline-shift:baseline;text-anchor:start;white-space:normal;shape-padding:0;clip-rule:nonzero;display:inline;overflow:visible;visibility:visible;opacity:1;isolation:auto;mix-blend-mode:normal;color-interpolation:sRGB;color-interpolation-filters:linearRGB;solid-color:#000000;solid-opacity:1;vector-effect:none;fill:url(#radialGradient4834-22);fill-opacity:1;fill-rule:nonzero;stroke:none;stroke-width:0.15647388;stroke-linecap:butt;stroke-linejoin:miter;stroke-miterlimit:4;stroke-dasharray:none;stroke-dashoffset:0;stroke-opacity:1;color-rendering:auto;image-rendering:auto;shape-rendering:auto;text-rendering:auto;enable-background:accumulate"
           d="m 375.17782,209.68545 c 3.31779,0.59093 9.24816,2.52 9.24816,2.52 -2.45403,-0.65942 -7.65913,-1.16044 -11.62353,-1.26589 -3.18178,-0.0846 -6.3893,0.18061 -9.50081,0.51508 -2.83507,0.30487 -8.25724,1.3495 -8.25724,1.3495 0,0 4.29839,-0.65624 6.52117,-0.79404 5.12919,-0.318 10.4338,-0.53748 15.51146,-0.0623 3.91126,0.36606 7.84519,1.05669 11.05977,2.20127 3.48648,1.24141 6.83594,2.86449 8.30694,4.84133 1.75753,2.36191 1.49875,5.20091 -0.0124,7.53611 -1.78691,2.76016 -9.60401,6.93141 -10.59508,6.98458 2.14083,-0.75254 3.07731,-3.5284 3.28666,-5.40432 0.20266,-1.81703 -0.5831,-3.68765 -1.99992,-5.37162 -1.16119,-1.38011 -2.92094,-2.68761 -5.17574,-3.69741 -2.45066,-1.09754 -5.48144,-1.96965 -8.69508,-2.39482 -3.71411,-0.49139 -7.74134,-0.37494 -11.5452,-0.0894 -3.44135,0.2583 -6.94338,0.72124 -9.90918,1.60926 -1.5356,0.45981 -2.92418,1.09778 -3.84139,1.85323 -0.70646,0.58188 -1.14778,1.27408 -1.14173,1.94992 0.006,0.76534 0.62704,1.554 1.33244,2.20254 -0.41691,-0.91719 -0.26451,-1.49419 0.40818,-2.292 0.79505,-0.94294 2.80518,-1.57571 4.65516,-2.05342 1.52583,-0.39404 3.31258,-0.5294 5.03409,-0.59779 1.69622,-0.0674 3.45781,-0.0438 5.09067,0.18962 2.87363,0.4109 6.09732,0.91606 7.90625,2.0779 2.69841,1.73314 3.63021,4.21604 2.94152,6.36456 -0.65131,2.03187 -3.08495,4.05567 -6.41653,5.32044 -4.85964,1.84485 -11.61113,2.82389 -17.74431,2.52864 -5.58032,-0.26867 -11.15869,-1.76518 -14.90588,-3.79558 -3.97909,-2.15604 -5.79803,-5.21503 -6.54139,-8.09047 -0.63379,-2.45152 1.89228,-7.35514 1.89228,-7.35514 0,0 -0.39831,3.39763 0.36004,5.03638 1.08743,2.3499 2.82021,4.7448 5.89479,6.63234 2.79982,1.71885 6.48055,3.3986 10.85741,3.92142 4.96127,0.59262 10.65598,0.0273 15.13678,-1.16683 2.7148,-0.72344 5.12795,-1.96018 6.16437,-3.37962 0.85159,-1.16625 0.53578,-2.54564 -0.32856,-3.70966 -0.57945,-0.78035 -1.70005,-1.50552 -3.09735,-1.98089 -1.97653,-0.67247 -4.50032,-1.04174 -6.91187,-1.04009 -0.33629,1.6e-4 -0.96294,0.14639 -0.96294,0.14639 0,0 1.57199,0.3402 2.15081,0.6356 0.92362,0.47135 1.64521,1.07866 1.91848,1.71628 0.27236,0.63561 0.11448,1.3315 -0.34727,1.94064 -0.5191,0.68472 -1.4161,1.34297 -2.61368,1.7822 -1.2786,0.46893 -2.93419,0.70305 -4.52719,0.78104 -2.61856,0.1281 -5.42163,-0.008 -7.81803,-0.53671 -2.08815,-0.46142 -3.96891,-1.24896 -5.20736,-2.18839 -1.70431,-1.29277 -2.7209,-2.89003 -2.63835,-4.42554 0.1209,-2.24928 1.95055,-4.51685 4.55595,-6.37554 1.92552,-1.37364 4.82081,-2.41829 7.78575,-3.24455 3.13076,-0.87246 6.69616,-1.36841 10.2322,-1.71651 2.41635,-0.23789 4.9186,-0.3162 7.37917,-0.24187 2.27996,0.069 4.58292,0.25194 6.72815,0.63404 z"
           id="path4751-1"
           inkscape:connector-curvature="0"
           sodipodi:nodetypes="acaacaaaaccaaaaaaaacccaaaaaaaacaaaaaaaacccccaaaaaaaaa" />
        <ellipse
           transform="scale(-1,1)"
           style="fill:#ff7b2e;fill-opacity:1;stroke:none;stroke-width:0.12440058;stroke-linecap:square;stroke-linejoin:round;stroke-miterlimit:4;stroke-dasharray:none;stroke-dashoffset:0;stroke-opacity:1"
           id="path4810-2"
           cx="-354.82443"
           cy="223.72212"
           rx="4.5343394"
           ry="1.989316" />
      </g>
    </g>
    <g
       id="g5209"
       style="opacity:0.8"
       transform="matrix(1.5139513,0,0,1.4796737,-220.9387,-9.830908)">
      <path
         sodipodi:nodetypes="acaacaaaaccaaaaaaaacccaaaaaaaacaaaaaaaacccccaaaaaaaaa"
         inkscape:connector-curvature="0"
         id="path4751-5-3-4"
         d="m 406.19507,25.401225 c 2.59322,-0.47678 7.43285,-0.840957 7.43285,-0.840957 -1.97016,0.228329 -5.93875,1.214585 -8.89672,2.120153 -2.37403,0.726801 -4.68521,1.655454 -6.90907,2.599578 -2.0263,0.860249 -5.79357,2.763601 -5.79357,2.763601 0,0 3.02674,-1.41276 4.63911,-2.030619 3.72064,-1.425753 7.59415,-2.839097 11.46241,-3.808766 2.97968,-0.746924 6.05213,-1.317851 8.69863,-1.459935 2.87033,-0.154094 5.7287,-0.06144 7.28001,0.686078 1.85347,0.893119 2.32678,2.543594 1.75489,4.217236 -0.67582,1.978185 -5.48296,6.212543 -6.20381,6.483401 1.40779,-0.941655 1.4507,-2.721699 1.16631,-3.821603 -0.27547,-1.065373 -1.29495,-1.920188 -2.73759,-2.517119 -1.18234,-0.489201 -2.79056,-0.79218 -4.69535,-0.808251 -2.07024,-0.01746 -4.51695,0.232265 -6.9943,0.776396 -2.86313,0.62886 -5.81563,1.673806 -8.56324,2.759018 -2.48576,0.981794 -4.96855,2.092636 -6.955,3.310779 -1.02853,0.630717 -1.90657,1.325303 -2.40831,1.970896 -0.38645,0.497238 -0.55089,0.991685 -0.38816,1.368128 0.18486,0.4261 0.82783,0.716392 1.50162,0.907433 -0.52324,-0.411436 -0.54558,-0.771171 -0.23467,-1.380951 0.36745,-0.72071 1.70657,-1.563611 2.96351,-2.280829 1.03672,-0.591567 2.32703,-1.10197 3.58478,-1.559077 1.23925,-0.450381 2.54816,-0.865827 3.81099,-1.132544 2.22243,-0.46939 4.72594,-0.971227 6.33643,-0.761664 2.40241,0.312599 3.67325,1.474273 3.6668,2.843246 -0.006,1.294626 -1.33286,3.018406 -3.50177,4.536205 -3.16366,2.213946 -7.92987,4.404054 -12.53695,5.731149 -4.1918,1.207469 -8.6697,1.727877 -11.91769,1.504207 -3.44902,-0.23749 -5.51115,-1.505458 -6.73452,-2.932478 -1.04299,-1.216641 -0.3222,-4.573223 -0.3222,-4.573223 0,0 0.50089,1.996784 1.44574,2.728636 1.35484,1.049439 3.19772,1.967021 5.91462,2.274444 2.47409,0.279941 5.59082,0.323699 8.95171,-0.448849 3.80962,-0.875693 7.89076,-2.577373 10.92652,-4.335243 1.83928,-1.06504 3.33518,-2.343716 3.76966,-3.389594 0.35701,-0.85933 -0.19967,-1.553824 -1.11177,-1.994424 -0.61147,-0.295382 -1.61041,-0.428229 -2.7556,-0.354087 -1.6199,0.104867 -3.57374,0.512412 -5.35767,1.100067 -0.24879,0.08191 -0.67821,0.316121 -0.67821,0.316121 0,0 1.24277,-0.192233 1.74022,-0.167886 0.79378,0.03885 1.46988,0.202877 1.82138,0.49294 0.35036,0.289161 0.39647,0.716689 0.19748,1.169656 -0.22374,0.509178 -0.73331,1.095498 -1.51654,1.632473 -0.83622,0.573299 -2.00638,1.107011 -3.1668,1.538208 -1.90747,0.70879 -4.01316,1.315074 -5.91025,1.602004 -1.65309,0.250031 -3.22908,0.267251 -4.36539,0.04326 -1.56375,-0.308235 -2.68995,-0.954048 -2.98844,-1.832745 -0.43723,-1.287167 0.38554,-3.000301 1.87805,-4.673533 1.10304,-1.23659 3.00065,-2.525149 5.00095,-3.708552 2.11216,-1.249583 4.63408,-2.394363 7.16888,-3.449336 1.73217,-0.720921 3.56526,-1.373509 5.40326,-1.930591 1.70308,-0.516188 3.44992,-0.974143 5.12665,-1.282418 z"
         style="color:#000000;font-style:normal;font-variant:normal;font-weight:normal;font-stretch:normal;font-size:medium;line-height:normal;font-family:sans-serif;font-variant-ligatures:normal;font-variant-position:normal;font-variant-caps:normal;font-variant-numeric:normal;font-variant-alternates:normal;font-feature-settings:normal;text-indent:0;text-align:start;text-decoration:none;text-decoration-line:none;text-decoration-style:solid;text-decoration-color:#000000;letter-spacing:normal;word-spacing:normal;text-transform:none;writing-mode:lr-tb;direction:ltr;text-orientation:mixed;dominant-baseline:auto;baseline-shift:baseline;text-anchor:start;white-space:normal;shape-padding:0;clip-rule:nonzero;display:inline;overflow:visible;visibility:visible;opacity:1;isolation:auto;mix-blend-mode:normal;color-interpolation:sRGB;color-interpolation-filters:linearRGB;solid-color:#000000;solid-opacity:1;vector-effect:none;fill:url(#radialGradient4858-2-9);fill-opacity:1;fill-rule:nonzero;stroke:#3a0028;stroke-width:7.85300016;stroke-linecap:butt;stroke-linejoin:round;stroke-miterlimit:4;stroke-dasharray:none;stroke-dashoffset:0;stroke-opacity:0.9142857;paint-order:stroke fill markers;color-rendering:auto;image-rendering:auto;shape-rendering:auto;text-rendering:auto;enable-background:accumulate" />
      <path
         sodipodi:nodetypes="acaacaaaaccaaaaaaaacccaaaaaaaacaaaaaaaacccccaaaaaaaaa"
         inkscape:connector-curvature="0"
         id="path4751-6-5"
         d="m 403.13722,28.511124 c 1.83,-0.336457 5.24526,-0.593453 5.24526,-0.593453 -1.39031,0.16113 -4.1909,0.857117 -6.27829,1.496165 -1.67533,0.512893 -3.3063,1.168232 -4.87564,1.834486 -1.42994,0.607068 -4.08845,1.950237 -4.08845,1.950237 0,0 2.13592,-0.996964 3.27375,-1.43298 2.62562,-1.006137 5.3591,-2.003514 8.08887,-2.687795 2.10272,-0.527094 4.27092,-0.92999 6.13852,-1.030257 2.02556,-0.108744 4.04266,-0.04335 5.1374,0.484158 1.30797,0.630261 1.64198,1.794977 1.23847,2.976026 -0.47692,1.395981 -3.86925,4.384108 -4.37795,4.57525 0.99347,-0.664516 1.02374,-1.920668 0.82305,-2.696856 -0.19439,-0.751819 -0.91382,-1.355051 -1.93187,-1.776299 -0.83437,-0.345223 -1.96927,-0.559029 -3.31345,-0.570369 -1.46095,-0.01232 -3.18756,0.163904 -4.93579,0.547891 -2.02048,0.44378 -4.10401,1.181183 -6.04296,1.947002 -1.75417,0.692839 -3.50625,1.476745 -4.90806,2.336374 -0.72582,0.44509 -1.34543,0.935248 -1.69951,1.390835 -0.27271,0.350893 -0.38876,0.699818 -0.27392,0.965469 0.13024,0.300767 0.5842,0.505549 1.05968,0.640362 -0.36925,-0.290344 -0.38502,-0.544201 -0.16562,-0.974516 0.25931,-0.508596 1.20432,-1.103422 2.09133,-1.609554 0.73159,-0.417459 1.64215,-0.777645 2.52972,-1.100216 0.87452,-0.317828 1.79821,-0.611005 2.68937,-0.799224 1.56834,-0.331241 3.33503,-0.68538 4.47154,-0.537498 1.69534,0.220602 2.59216,1.040376 2.58761,2.006444 -0.004,0.913601 -0.94059,2.13005 -2.47116,3.201141 -2.23255,1.562351 -5.596,3.107882 -8.84716,4.044395 -2.9581,0.852097 -6.11809,1.21934 -8.41016,1.061501 -2.43393,-0.167595 -3.88915,-1.062383 -4.75245,-2.069414 -0.73603,-0.858566 -0.22738,-3.227262 -0.22738,-3.227262 0,0 0.35347,1.409104 1.02024,1.925562 0.9561,0.740575 2.2566,1.388099 4.17387,1.605044 1.74594,0.197551 3.94537,0.228431 6.3171,-0.316745 2.6884,-0.617966 5.56841,-1.81882 7.71071,-3.059324 1.29795,-0.751586 2.35359,-1.653929 2.6602,-2.391991 0.25192,-0.606417 -0.14091,-1.096515 -0.78457,-1.40744 -0.43151,-0.208445 -1.13644,-0.302193 -1.94459,-0.249876 -1.14315,0.07401 -2.52194,0.361604 -3.78084,0.776305 -0.17556,0.0578 -0.4786,0.223082 -0.4786,0.223082 0,0 0.87701,-0.135657 1.22805,-0.118474 0.56016,0.02741 1.03728,0.143167 1.28533,0.347859 0.24724,0.204058 0.27978,0.50576 0.13935,0.825414 -0.15788,0.359319 -0.51748,0.773076 -1.0702,1.152015 -0.59011,0.404568 -1.41587,0.781201 -2.23477,1.085491 -1.34607,0.500183 -2.83203,0.928024 -4.17079,1.130515 -1.16656,0.176442 -2.27871,0.188595 -3.08059,0.03053 -1.10352,-0.217519 -1.89826,-0.673261 -2.1089,-1.293347 -0.30855,-0.908335 0.27207,-2.117271 1.32531,-3.298049 0.7784,-0.872646 2.11752,-1.781965 3.52911,-2.617079 1.49052,-0.881812 3.2702,-1.689667 5.05898,-2.434149 1.22237,-0.508744 2.51595,-0.969266 3.813,-1.36239 1.20185,-0.364269 2.43457,-0.68744 3.61782,-0.904986 z"
         style="color:#000000;font-style:normal;font-variant:normal;font-weight:normal;font-stretch:normal;font-size:medium;line-height:normal;font-family:sans-serif;font-variant-ligatures:normal;font-variant-position:normal;font-variant-caps:normal;font-variant-numeric:normal;font-variant-alternates:normal;font-feature-settings:normal;text-indent:0;text-align:start;text-decoration:none;text-decoration-line:none;text-decoration-style:solid;text-decoration-color:#000000;letter-spacing:normal;word-spacing:normal;text-transform:none;writing-mode:lr-tb;direction:ltr;text-orientation:mixed;dominant-baseline:auto;baseline-shift:baseline;text-anchor:start;white-space:normal;shape-padding:0;clip-rule:nonzero;display:inline;overflow:visible;visibility:visible;opacity:1;isolation:auto;mix-blend-mode:normal;color-interpolation:sRGB;color-interpolation-filters:linearRGB;solid-color:#000000;solid-opacity:1;vector-effect:none;fill:url(#radialGradient4834-2-9);fill-opacity:1;fill-rule:nonzero;stroke:none;stroke-width:0.07575832;stroke-linecap:butt;stroke-linejoin:miter;stroke-miterlimit:4;stroke-dasharray:none;stroke-dashoffset:0;stroke-opacity:1;color-rendering:auto;image-rendering:auto;shape-rendering:auto;text-rendering:auto;enable-background:accumulate" />
      <ellipse
         transform="matrix(-0.94995969,0.3123725,0.38626404,0.92238825,0,0)"
         ry="0.85104334"
         rx="2.4922755"
         cy="159.49574"
         cx="-350.77478"
         id="path4810-0-0"
         style="fill:#f888ea;fill-opacity:1;stroke:none;stroke-width:0.06032362;stroke-linecap:square;stroke-linejoin:round;stroke-miterlimit:4;stroke-dasharray:none;stroke-dashoffset:0;stroke-opacity:1" />
    </g>
    <g
       id="g5161"
       style="opacity:0.65"
       transform="matrix(0.06927672,1.664311,-1.6362646,0.20108533,331.69831,-179.52407)">
      <path
         sodipodi:nodetypes="acaacaaaaccaaaaaaaacccaaaaaaaacaaaaaaaacccccaaaaaaaaa"
         inkscape:connector-curvature="0"
         id="path4751-5-06"
         d="m 117.68279,103.27057 c -0.5507,-2.18396 -0.87829,-6.765828 -0.87829,-6.765828 0.24,1.788147 1.42533,4.883258 2.53609,7.026038 0.89155,1.71976 2.05426,3.18112 3.24045,4.53856 1.08085,1.23687 3.49561,3.24376 3.49561,3.24376 0,0 -1.78483,-1.72454 -2.55602,-2.77287 -1.7795,-2.41918 -3.53745,-5.00616 -4.70393,-8.01496 -0.89828,-2.317777 -1.55935,-4.899378 -1.66223,-7.459905 -0.11161,-2.777067 0.10545,-5.779555 1.15297,-8.08047 1.25155,-2.749081 3.4679,-4.820762 5.68091,-5.849466 2.61572,-1.216067 8.10484,-0.393941 8.44243,0.07992 -1.20958,-0.528096 -3.58182,1.142234 -5.05777,2.491209 -1.42968,1.306663 -2.60284,3.168832 -3.44605,5.213979 -0.691,1.676092 -1.14763,3.606945 -1.23136,5.563794 -0.091,2.126823 0.16198,4.380043 0.80656,6.381002 0.7449,2.312607 2.04168,4.315597 3.39892,6.070967 1.22788,1.58814 2.62798,3.04897 4.18729,3.90057 0.80746,0.44088 1.7049,0.66702 2.54936,0.55675 0.65042,-0.0849 1.30432,-0.39353 1.81161,-0.92179 0.57422,-0.59873 0.9824,-1.53357 1.25914,-2.40424 -0.56575,0.92945 -1.04618,1.2986 -1.84904,1.56895 -0.94904,0.31948 -2.02919,-0.23376 -2.94452,-0.82416 -0.75491,-0.48701 -1.39333,-1.31061 -1.96169,-2.15238 -0.56004,-0.82932 -1.07119,-1.76336 -1.3855,-2.79365 -0.55318,-1.81315 -1.14052,-3.88146 -0.80839,-5.724689 0.49542,-2.749557 2.08603,-5.163391 3.91126,-6.475041 1.72613,-1.240394 3.98133,-1.548075 5.9343,-0.798975 2.84877,1.092528 5.61324,3.841431 7.23219,7.25908 1.47303,3.109571 2.02049,7.172365 1.61597,10.698155 -0.42945,3.74392 -2.18769,7.06665 -4.13056,9.68758 -1.65647,2.23456 -6.10876,4.73205 -6.10876,4.73205 0,0 2.67901,-2.4333 3.6858,-4.10097 1.4437,-2.39142 2.72749,-5.15324 3.22632,-8.21833 0.45424,-2.7912 0.61455,-6.0099 -0.30568,-8.69137 -1.04314,-3.039631 -3.17878,-5.560541 -5.42351,-6.961922 -1.36003,-0.849076 -3.01617,-1.142379 -4.39658,-0.578154 -1.1342,0.463635 -2.07848,1.699731 -2.69584,3.053606 -0.41389,0.907657 -0.62369,2.053717 -0.56231,3.149501 0.0869,1.550019 0.56639,3.148989 1.29166,4.401269 0.10086,0.17477 0.39934,0.38688 0.39934,0.38688 0,0 -0.21562,-1.08158 -0.1669,-1.61201 0.0777,-0.84645 0.31858,-1.69349 0.71686,-2.331046 0.39708,-0.635533 0.96866,-1.094201 1.56613,-1.327531 0.67152,-0.262698 1.43685,-0.307479 2.12728,-0.02625 0.73709,0.300258 1.41053,0.978896 1.94748,1.746437 0.88277,1.2616 1.62237,2.82389 1.94292,4.48115 0.27926,1.44412 0.25078,3.03374 -0.0851,4.40756 -0.46224,1.8906 -1.3602,3.66028 -2.54172,4.81061 -1.73059,1.68514 -3.98811,2.49609 -6.1705,2.58611 -1.61285,0.0666 -3.26903,-0.62674 -4.78164,-1.52591 -1.59716,-0.94945 -3.04117,-2.41751 -4.36505,-3.98512 -0.90465,-1.07121 -1.71493,-2.31108 -2.39762,-3.64803 -0.63259,-1.23872 -1.18612,-2.57814 -1.5424,-3.9902 z"
         style="color:#000000;font-style:normal;font-variant:normal;font-weight:normal;font-stretch:normal;font-size:medium;line-height:normal;font-family:sans-serif;font-variant-ligatures:normal;font-variant-position:normal;font-variant-caps:normal;font-variant-numeric:normal;font-variant-alternates:normal;font-feature-settings:normal;text-indent:0;text-align:start;text-decoration:none;text-decoration-line:none;text-decoration-style:solid;text-decoration-color:#000000;letter-spacing:normal;word-spacing:normal;text-transform:none;writing-mode:lr-tb;direction:ltr;text-orientation:mixed;dominant-baseline:auto;baseline-shift:baseline;text-anchor:start;white-space:normal;shape-padding:0;clip-rule:nonzero;display:inline;overflow:visible;visibility:visible;opacity:1;isolation:auto;mix-blend-mode:normal;color-interpolation:sRGB;color-interpolation-filters:linearRGB;solid-color:#000000;solid-opacity:1;vector-effect:none;fill:url(#radialGradient4858-3);fill-opacity:1;fill-rule:nonzero;stroke:#1e003a;stroke-width:9.04792118;stroke-linecap:butt;stroke-linejoin:round;stroke-miterlimit:4;stroke-dasharray:none;stroke-dashoffset:0;stroke-opacity:0.9142857;paint-order:stroke fill markers;color-rendering:auto;image-rendering:auto;shape-rendering:auto;text-rendering:auto;enable-background:accumulate" />
      <path
         sodipodi:nodetypes="acaacaaaaccaaaaaaaacccaaaaaaaacaaaaaaaacccccaaaaaaaaa"
         inkscape:connector-curvature="0"
         id="path4751-15"
         d="m 121.72973,103.39259 c -0.38842,-1.54132 -0.61979,-4.774604 -0.61979,-4.774604 0.16934,1.261886 1.00584,3.446074 1.7897,4.958194 0.6291,1.21364 1.44969,2.24488 2.28673,3.20284 0.76273,0.87278 2.46682,2.28901 2.46682,2.28901 0,0 -1.25956,-1.21692 -1.80373,-1.95674 -1.25573,-1.70724 -2.4963,-3.53283 -3.3195,-5.65609 -0.63422,-1.635498 -1.10042,-3.45742 -1.17304,-5.264357 -0.0788,-1.959746 0.0744,-4.078552 0.81365,-5.70227 0.88323,-1.939974 2.44726,-3.401927 4.00892,-4.127924 1.8459,-0.858135 5.71946,-0.27801 5.95772,0.0564 -0.85358,-0.372749 -2.52764,0.806041 -3.56923,1.758002 -1.00888,0.922056 -1.8368,2.236158 -2.43179,3.679404 -0.48764,1.182826 -0.80987,2.545381 -0.86895,3.926323 -0.0642,1.500888 0.11431,3.090935 0.56912,4.503002 0.52565,1.63196 1.44082,3.04545 2.39859,4.28423 0.8665,1.12069 1.85449,2.15156 2.95492,2.75259 0.56973,0.31117 1.2031,0.47064 1.799,0.39281 0.45908,-0.0594 0.92045,-0.27772 1.27851,-0.65046 0.40529,-0.42238 0.69317,-1.08224 0.88849,-1.69668 -0.39922,0.65592 -0.7383,0.91637 -1.30486,1.10723 -0.66974,0.22542 -1.43197,-0.16496 -2.0779,-0.58164 -0.53263,-0.34374 -0.9832,-0.92491 -1.38429,-1.51888 -0.39543,-0.58518 -0.75601,-1.24439 -0.97779,-1.97144 -0.39033,-1.27948 -0.80482,-2.739124 -0.57048,-4.039845 0.34962,-1.940306 1.47208,-3.643725 2.76013,-4.569359 1.21821,-0.875196 2.80955,-1.092419 4.18776,-0.563831 2.01031,0.771063 3.96123,2.710836 5.10369,5.122609 1.03946,2.194486 1.42579,5.061506 1.14041,7.549576 -0.30315,2.64206 -1.54389,4.98686 -2.91494,6.83647 -1.16891,1.57686 -4.31086,3.3393 -4.31086,3.3393 0,0 1.89051,-1.71716 2.60105,-2.894 1.01877,-1.6876 1.92472,-3.63658 2.27673,-5.79957 0.32052,-1.96967 0.4337,-4.24107 -0.21572,-6.1334 -0.73608,-2.14499 -2.24325,-3.923942 -3.82726,-4.912896 -0.95978,-0.599135 -2.12845,-0.806192 -3.1026,-0.408039 -0.8002,0.327616 -1.46679,1.19947 -1.90244,2.154911 -0.29204,0.640488 -0.44013,1.449245 -0.39681,2.222504 0.0613,1.09391 0.3997,2.22223 0.91152,3.10596 0.0713,0.12328 0.28183,0.27297 0.28183,0.27297 0,0 -0.15215,-0.76327 -0.1178,-1.13753 0.0549,-0.59733 0.22481,-1.19509 0.50593,-1.64498 0.28026,-0.44846 0.68332,-0.77238 1.10519,-0.936868 0.47393,-0.185154 1.01392,-0.217084 1.50115,-0.0182 0.52022,0.211858 0.99536,0.690798 1.37436,1.232478 0.62295,0.89027 1.14488,1.99281 1.37104,3.16232 0.19706,1.01903 0.17693,2.14085 -0.0601,3.11037 -0.32622,1.33415 -0.95986,2.58301 -1.79362,3.39477 -1.22137,1.18909 -2.81437,1.76147 -4.35443,1.82497 -1.13822,0.047 -2.30697,-0.44225 -3.37436,-1.07681 -1.12711,-0.67003 -2.14615,-1.70598 -3.08039,-2.81218 -0.63846,-0.75599 -1.21017,-1.63103 -1.692,-2.57442 -0.44645,-0.87413 -0.83703,-1.81935 -1.08841,-2.81582 z"
         style="color:#000000;font-style:normal;font-variant:normal;font-weight:normal;font-stretch:normal;font-size:medium;line-height:normal;font-family:sans-serif;font-variant-ligatures:normal;font-variant-position:normal;font-variant-caps:normal;font-variant-numeric:normal;font-variant-alternates:normal;font-feature-settings:normal;text-indent:0;text-align:start;text-decoration:none;text-decoration-line:none;text-decoration-style:solid;text-decoration-color:#000000;letter-spacing:normal;word-spacing:normal;text-transform:none;writing-mode:lr-tb;direction:ltr;text-orientation:mixed;dominant-baseline:auto;baseline-shift:baseline;text-anchor:start;white-space:normal;shape-padding:0;clip-rule:nonzero;display:inline;overflow:visible;visibility:visible;opacity:1;isolation:auto;mix-blend-mode:normal;color-interpolation:sRGB;color-interpolation-filters:linearRGB;solid-color:#000000;solid-opacity:1;vector-effect:none;fill:url(#radialGradient4834-0);fill-opacity:1;fill-rule:nonzero;stroke:none;stroke-width:0.08728898;stroke-linecap:butt;stroke-linejoin:miter;stroke-miterlimit:4;stroke-dasharray:none;stroke-dashoffset:0;stroke-opacity:1;color-rendering:auto;image-rendering:auto;shape-rendering:auto;text-rendering:auto;enable-background:accumulate" />
      <ellipse
         transform="matrix(0.50012938,0.86595069,0.69602251,-0.71801996,0,0)"
         ry="1.5193572"
         rx="1.920868"
         cy="66.554413"
         cx="174.31567"
         id="path4810-5"
         style="fill:#c499ff;fill-opacity:1;stroke:none;stroke-width:0.07076072;stroke-linecap:square;stroke-linejoin:round;stroke-miterlimit:4;stroke-dasharray:none;stroke-dashoffset:0;stroke-opacity:1" />
    </g>
  </g>
</svg>
