<?xml version="1.0" encoding="UTF-8" standalone="no"?>
<svg
   xmlns:dc="http://purl.org/dc/elements/1.1/"
   xmlns:cc="http://creativecommons.org/ns#"
   xmlns:rdf="http://www.w3.org/1999/02/22-rdf-syntax-ns#"
   xmlns:svg="http://www.w3.org/2000/svg"
   xmlns="http://www.w3.org/2000/svg"
   xmlns:xlink="http://www.w3.org/1999/xlink"
   xmlns:sodipodi="http://sodipodi.sourceforge.net/DTD/sodipodi-0.dtd"
   xmlns:inkscape="http://www.inkscape.org/namespaces/inkscape"
   width="128"
   height="128"
   viewBox="0 0 33.866667 33.866668"
   version="1.1"
   id="svg8"
   sodipodi:docname="enemy-type2.svg"
   inkscape:version="1.0.2 (1.0.2+r75+1)"
   inkscape:export-filename="/home/mag/Desktop/cs-320-game/GraphicsProjectJava/res/icons/enemy-slime.png"
   inkscape:export-xdpi="96"
   inkscape:export-ydpi="96">
  <defs
     id="defs2">
    <linearGradient
       inkscape:collect="always"
       id="linearGradient1191">
      <stop
         style="stop-color:#ffbf2f;stop-opacity:1"
         offset="0"
         id="stop1187" />
      <stop
         style="stop-color:#e7f100;stop-opacity:1"
         offset="1"
         id="stop1189" />
    </linearGradient>
    <linearGradient
       inkscape:collect="always"
       id="linearGradient1110">
      <stop
         style="stop-color:#089800;stop-opacity:1"
         offset="0"
         id="stop1106" />
      <stop
         style="stop-color:#01b9e4;stop-opacity:0.99635488"
         offset="1"
         id="stop1108" />
    </linearGradient>
    <inkscape:path-effect
       effect="spiro"
       id="path-effect1052"
       is_visible="true"
       lpeversion="1" />
    <inkscape:path-effect
       effect="spiro"
       id="path-effect1028"
       is_visible="true"
       lpeversion="1" />
    <inkscape:path-effect
       effect="spiro"
       id="path-effect984"
       is_visible="true"
       lpeversion="1" />
    <inkscape:path-effect
       effect="spiro"
       id="path-effect980"
       is_visible="true"
       lpeversion="1" />
    <inkscape:path-effect
       effect="spiro"
       id="path-effect970"
       is_visible="true"
       lpeversion="1" />
    <inkscape:path-effect
       effect="spiro"
       id="path-effect952"
       is_visible="true"
       lpeversion="1" />
    <inkscape:path-effect
       effect="spiro"
       id="path-effect915"
       is_visible="true"
       lpeversion="1" />
    <inkscape:path-effect
       effect="spiro"
       id="path-effect907"
       is_visible="true"
       lpeversion="1" />
    <inkscape:path-effect
       effect="spiro"
       id="path-effect903"
       is_visible="true"
       lpeversion="1" />
    <inkscape:path-effect
       effect="spiro"
       id="path-effect893"
       is_visible="true"
       lpeversion="1" />
    <linearGradient
       inkscape:collect="always"
       xlink:href="#linearGradient1110"
       id="linearGradient1112"
       x1="16.609087"
       y1="16.27043"
       x2="-4.9192147"
       y2="-4.3900256"
       gradientUnits="userSpaceOnUse" />
    <radialGradient
       inkscape:collect="always"
       xlink:href="#linearGradient1191"
       id="radialGradient1193"
       cx="13.973477"
       cy="7.0335922"
       fx="13.973477"
       fy="7.0335922"
       r="2.1876698"
       gradientTransform="matrix(0.75760383,-0.65271467,0.49124115,0.57018204,-0.06807279,12.270323)"
       gradientUnits="userSpaceOnUse" />
    <radialGradient
       inkscape:collect="always"
       xlink:href="#linearGradient1191"
       id="radialGradient1201"
       cx="5.3233461"
       cy="7.3004756"
       fx="5.3233461"
       fy="7.3004756"
       r="2.1543889"
       gradientTransform="matrix(1,0,0,0.55890107,0,3.2202321)"
       gradientUnits="userSpaceOnUse" />
  </defs>
  <sodipodi:namedview
     id="base"
     pagecolor="#ffffff"
     bordercolor="#666666"
     borderopacity="1.0"
     inkscape:pageopacity="0.0"
     inkscape:pageshadow="2"
     inkscape:zoom="3.959798"
     inkscape:cx="104.20783"
     inkscape:cy="45.676541"
     inkscape:document-units="mm"
     inkscape:current-layer="layer1"
     inkscape:document-rotation="0"
     showgrid="false"
     inkscape:window-width="1848"
     inkscape:window-height="1016"
     inkscape:window-x="72"
     inkscape:window-y="27"
     inkscape:window-maximized="1"
     units="px"
     showguides="false">
    <inkscape:grid
       type="xygrid"
       id="grid958" />
  </sodipodi:namedview>
  <metadata
     id="metadata5">
    <rdf:RDF>
      <cc:Work
         rdf:about="">
        <dc:format>image/svg+xml</dc:format>
        <dc:type
           rdf:resource="http://purl.org/dc/dcmitype/StillImage" />
        <dc:title></dc:title>
      </cc:Work>
    </rdf:RDF>
  </metadata>
  <g
     inkscape:label="Layer 1"
     inkscape:groupmode="layer"
     id="layer1"
     style="display:inline">
    <g
       id="g894"
       transform="matrix(1.7701255,0,0,1.7701255,-0.15521102,0.17953712)">
      <path
         id="path853"
         style="fill:url(#linearGradient1112);fill-opacity:1;fill-rule:nonzero;stroke:none;stroke-width:0.273315;stroke-linecap:square;stroke-miterlimit:4;stroke-dasharray:none;stroke-opacity:1;paint-order:markers fill stroke"
         d="m 18.075207,12.268337 c -0.358295,2.818702 -0.609545,4.596747 -1.854962,4.096065 -1.098548,-0.441639 -0.05968,-4.394874 -1.109002,-3.619663 -0.361704,0.267214 -1.869688,6.142277 -2.948787,5.784974 -1.07972,-0.35751 -1.420444,-4.590833 -1.736491,-4.358895 -0.22419,0.164526 -0.5871037,4.626306 -2.1789649,4.701257 C 7.0143725,18.93011 6.8422306,14.559652 6.3907356,14.209456 5.6051551,13.60013 6.3953173,16.919483 5.406743,17.025035 4.4441928,17.127806 3.8982756,11.996452 3.3590774,11.690319 2.9258823,11.444368 3.8311086,15.696426 2.5310661,15.532959 1.2128521,15.367207 0.10099185,10.460943 0.70493415,8.2047008 0.93573644,7.3424562 1.0086601,6.776474 1.5446856,6.0344416 2.0643556,5.3150506 0.15303803,7.0404493 0.580736,5.3031197 0.90473847,3.9870066 2.186322,3.2132096 3.2829331,2.5347546 5.0254474,1.4566895 7.0869622,0.6389391 9.1359346,0.65603304 c 1.3060214,0.0108954 4.0261314,0.24734292 5.1586224,0.65938486 0.843132,0.3067623 2.3893,0.7664258 1.765999,1.4870168 C 15.844794,3.051874 14.681138,2.4290942 14.955809,2.604836 15.50515,2.9563195 15.81909,3.0798831 16.255638,3.5484324 17.723693,5.1241059 19.156963,8.469858 18.636153,9.263837 18.274831,9.8146774 17.62669,8.4740352 17.757794,8.9561475 c 0.346456,1.2740245 0.447091,2.2920095 0.317413,3.3121895 z"
         sodipodi:nodetypes="sssssssssssssassssssss" />
      <g
         id="g871"
         style="mix-blend-mode:overlay">
        <path
           id="path1055"
           style="display:inline;opacity:1;fill:#2b2b2b;fill-opacity:1;stroke:none;stroke-width:0.15875;stroke-linecap:round;stroke-linejoin:round;stroke-miterlimit:4;stroke-dasharray:none;stroke-opacity:1;paint-order:markers fill stroke"
           d="M 16.023719,5.7043723 C 15.800417,5.7391238 15.708997,5.3304954 15.48984,5.2483753 15.183912,5.1337406 14.848769,5.1842852 14.496595,4.8537143 14.268214,4.6393431 13.856988,4.9513314 13.597416,5.1266455 13.406647,5.2554903 13.359751,5.5427485 13.164536,5.6647527 12.870865,5.8482894 12.480618,5.7875052 12.151529,5.8953408 11.741069,6.02984 11.384338,6.5057143 10.962857,6.411257 10.608673,6.3318813 10.145016,5.9419348 10.244542,5.5928768 c 0.09754,-0.3420813 0.697368,-0.1626987 1.021074,-0.310169 0.322329,-0.1468432 0.613742,-0.3562533 0.900275,-0.5644789 0.1717,-0.124776 0.306373,-0.2993538 0.488319,-0.4086508 0.382261,-0.229629 0.795344,-0.4665728 1.239823,-0.5025111 0.232162,-0.018771 0.465859,0.066612 0.681347,0.1550231 0.401285,0.1646415 0.908531,0.299428 1.105949,0.6856444 0.193487,0.3785274 0.54823,1.0246037 0.34239,1.0566378 z"
           sodipodi:nodetypes="sssaaaaaaaaaass" />
        <path
           id="path1055-1"
           style="display:inline;opacity:1;mix-blend-mode:normal;fill:#2b2b2b;fill-opacity:1;stroke:none;stroke-width:0.15875;stroke-linecap:round;stroke-linejoin:round;stroke-miterlimit:4;stroke-dasharray:none;stroke-opacity:1;paint-order:markers fill stroke"
           d="M 2.8740871,5.0500463 C 2.6649624,5.4401309 3.4557555,5.0338799 3.7461661,5.0467363 4.0525068,5.060298 4.376906,5.0190298 4.6621744,5.1315041 5.0167756,5.2713146 5.2009105,5.7231714 5.5663423,5.8315623 5.9549924,5.9468399 6.3884732,5.6208699 6.7783983,5.7317583 7.2790647,5.8741398 7.5298871,6.5314251 8.0343607,6.659666 8.2455328,6.7133475 8.4927836,6.6779057 8.6817731,6.56947 8.8668407,6.4632845 9.0993094,6.2790145 9.0779659,6.0667179 9.0481427,5.7700762 8.6143212,5.6910887 8.3956067,5.4884816 8.1575301,5.2679384 8.0053604,4.933247 7.7113085,4.79594 7.3656083,4.6345159 6.9094178,4.8772031 6.5705908,4.7018104 6.2570786,4.5395218 6.227766,3.9932811 5.8900997,3.8902816 5.5405955,3.7836711 5.2006787,4.1603069 4.8368453,4.1941333 4.6096707,4.2152542 4.3756201,4.0688941 4.1554981,4.1288997 3.6487101,4.2670509 2.9920544,4.8299994 2.8740871,5.0500463 Z"
           sodipodi:nodetypes="saaaaaaaaaaaass" />
        <path
           style="display:inline;opacity:1;fill:none;stroke:#000000;stroke-width:0.265;stroke-linecap:round;stroke-linejoin:miter;stroke-miterlimit:4;stroke-dasharray:none;stroke-opacity:1"
           d="M 4.7625,10.847917 5.0624025,9.2931102 C 5.0869935,9.1656227 5.1123425,9.0377778 5.1548925,8.9151106 5.1974425,8.7924434 5.257475,8.6749872 5.3399607,8.5747182 5.4224467,8.4744493 5.5272774,8.3921133 5.645922,8.3393761 c 0.1186446,-0.052737 0.2503525,-0.075468 0.3798759,-0.066444 0.1295235,0.00902 0.2562119,0.049442 0.3694774,0.112914 0.1132655,0.063472 0.213071,0.149455 0.2986918,0.2470604 0.1712417,0.1952109 0.2836765,0.4334964 0.4046649,0.6632633 0.079825,0.1515941 0.165272,0.3014646 0.2747864,0.4332196 0.1095144,0.131755 0.2448391,0.2454876 0.4037639,0.3094856 0.2262694,0.09112 0.4854109,0.07455 0.7164437,-0.0037 C 8.7158501,9.9599033 8.9155484,9.8315752 9.1143313,9.706937 9.352375,9.557682 9.5998323,9.4053143 9.7591607,9.1738919 9.8181455,9.0882172 9.8636822,8.9933839 9.928341,8.9119062 9.96067,8.8711672 9.997876,8.8338382 10.041368,8.8053196 c 0.04349,-0.028518 0.09355,-0.048002 0.145433,-0.051657 0.05156,-0.00363 0.103496,0.00845 0.150475,0.029997 0.04698,0.021546 0.08927,0.052308 0.127852,0.086697 0.07717,0.068777 0.140267,0.1522394 0.218194,0.2201538 0.120021,0.1045994 0.27109,0.1683652 0.425671,0.2064517 0.187885,0.046292 0.382481,0.056762 0.575728,0.066736 0.08851,0.00457 0.177416,0.00907 0.265636,5.348e-4 0.08822,-0.00853 0.176397,-0.030653 0.252532,-0.076031 0.103727,-0.061823 0.178443,-0.1621915 0.274485,-0.235386 0.09067,-0.069097 0.199645,-0.1128209 0.312179,-0.1310063 0.112533,-0.018186 0.228507,-0.011256 0.339482,0.014802 0.22195,0.052116 0.420218,0.1786132 0.592834,0.3275487 0.462119,0.3987239 0.765203,0.9769167 0.830215,1.5838007"
           id="path968"
           inkscape:path-effect="#path-effect970"
           inkscape:original-d="M 4.7625,10.847917 5.0624025,9.2931102 c 0.1265745,-0.6562092 1.4153753,-0.2712267 2.0362297,0.00306 0.3067337,0.1355116 0.3713624,0.6082256 0.6785503,0.7427048 0.2187726,0.09577 0.4848057,0.05437 0.7164437,-0.0037 C 8.7206398,9.9782167 8.8500121,9.707202 9.1143313,9.706937 9.3786493,9.706673 9.5801363,9.4566246 9.7591607,9.1738919 10.333399,8.2669976 10.048434,8.865903 10.186801,8.7536629 c 0.187043,-0.1517246 0.348416,0.1772692 0.496521,0.336848 0.146217,0.1575445 0.66962,-0.1382868 0.425671,0.2064517 -0.110154,0.1556652 0.382554,0.069564 0.575728,0.066736 0.174527,-0.00256 0.359277,-0.00325 0.518168,-0.075496 0.10972,-0.049892 -0.0096,0.03554 0.274485,-0.235386 0.437136,-0.416916 -0.532335,-1.9000433 1.244495,0.2113445 0.430348,0.5113773 0.399871,1.0724229 0.830215,1.5838009"
           sodipodi:nodetypes="csaaasssssaassc" />
      </g>
      <g
         id="g879"
         style="display:inline;opacity:1">
        <path
           id="path888"
           style="fill:url(#radialGradient1193);fill-opacity:1;stroke:none;stroke-width:0.127529;stroke-linecap:round;stroke-linejoin:round;stroke-miterlimit:4;stroke-dasharray:none;stroke-opacity:0.972549;paint-order:markers fill stroke"
           d="m 16.050252,7.7720596 c -0.194356,0.067918 -0.33318,0.7007824 -0.572727,0.8413498 -0.239548,0.1405674 -0.7181,-1.119263 -0.922646,-0.977091 -0.18727,0.130164 -0.406751,0.1314007 -0.69277,0.039657 -0.143009,-0.045872 -0.383924,0.3660235 -0.564493,0.278155 -0.180568,-0.087869 -0.270579,-0.7958711 -0.527501,-0.7963792 -1.03705,-0.00205 -1.179294,-0.055429 -0.970154,-0.4258988 0.311933,-0.5525559 0.436917,-0.5416644 0.767698,-0.6255829 0.300507,-0.076238 1.430206,-0.076289 1.950926,0.066135 0.831212,0.2273486 1.788791,1.5098034 1.531667,1.5996551 z"
           sodipodi:nodetypes="ssssssssss" />
        <path
           id="path888-7"
           style="fill:url(#radialGradient1201);fill-opacity:1;stroke:none;stroke-width:0.127529;stroke-linecap:round;stroke-linejoin:round;stroke-miterlimit:4;stroke-dasharray:none;stroke-opacity:1;paint-order:markers fill stroke"
           d="M 4.376587,8.5040823 C 4.860254,8.4867044 4.7446067,8.0841275 4.9812525,7.8672797 5.198861,7.6678765 5.0352632,7.7314789 5.3339329,7.7690285 5.6326025,7.806578 6.2605612,7.318944 6.5455342,7.297008 7.4845401,7.2247275 7.5962442,7.0674003 7.3905772,6.7043662 7.0778092,6.1522827 6.813121,6.1901884 6.48234,6.1062699 6.181833,6.0300319 4.4769473,6.41512 3.9583317,6.5650267 3.1279965,6.8050365 2.9230752,8.2634808 3.4854811,8.332265 3.6929959,8.3576448 3.9953691,7.7828504 3.9878344,7.9764096 3.96875,8.4666667 4.2087645,8.510112 4.376587,8.5040823 Z"
           sodipodi:nodetypes="ssssssssss" />
      </g>
      <path
         id="path861-3"
         style="display:inline;opacity:1;fill:#036988;fill-opacity:1;stroke:none;stroke-width:0.207909;stroke-linecap:round;stroke-linejoin:round;stroke-miterlimit:4;stroke-dasharray:none;stroke-opacity:0.462745;paint-order:markers fill stroke"
         inkscape:transform-center-x="0.31056699"
         inkscape:transform-center-y="0.13304001"
         d="M 7.6672214,2.3148545 7.4274296,1.1162725 6.7605834,-0.04388665 5.9949261,0.8808023 C 5.0186052,1.9340867 5.1694376,2.2540545 6.506818,2.3595654 Z M 2.6267942,4.5257016 1.7794786,3.577776 1.5286021,2.1294895 2.7723363,2.3154655 c 1.4626654,0.00273 1.5092981,0.3448329 0.5881192,1.4243983 z m 2.706041,-2.5094921 c 0.1730167,0.3979111 -0.00821,0.54725 -0.4673968,0.746909 C 4.4062545,2.9627774 4.1601736,2.9892964 3.9871572,2.591386 3.8141406,2.1934749 3.9813667,2.0200468 4.4405506,1.8203879 4.8997349,1.6207289 5.1598186,1.6182985 5.3328352,2.0162095 Z"
         sodipodi:nodetypes="ccccccccccccsssss" />
    </g>
  </g>
  <g
     inkscape:groupmode="layer"
     id="layer2"
     inkscape:label="Layer 2"
     style="display:none;opacity:1" />
  <g
     inkscape:groupmode="layer"
     id="layer3"
     inkscape:label="Layer 3"
     style="display:none;opacity:1" />
  <g
     inkscape:groupmode="layer"
     id="layer4"
     inkscape:label="Layer 4"
     style="display:none;mix-blend-mode:overlay" />
</svg>
